<?xml version="1.0" standalone="no"?>
<!DOCTYPE svg PUBLIC "-//W3C//DTD SVG 20010904//EN"
 "http://www.w3.org/TR/2001/REC-SVG-20010904/DTD/svg10.dtd">
<svg version="1.0" xmlns="http://www.w3.org/2000/svg"
 width="598.000000pt" height="369.000000pt" viewBox="0 0 598.000000 369.000000"
 preserveAspectRatio="xMidYMid meet">

<g transform="translate(0.000000,369.000000) scale(0.100000,-0.100000)"
fill="#000000" stroke="none">
<path d="M2653 3375 c0 -59 1 -69 6 -40 4 22 10 46 14 53 5 6 4 12 -2 12 -5 0
-12 12 -14 28 -2 15 -4 -9 -4 -53z"/>
<path d="M3343 3375 c0 -44 2 -61 4 -37 2 23 2 59 0 80 -2 20 -4 1 -4 -43z"/>
<path d="M3128 3388 c5 -89 9 -97 11 -20 0 39 -2 72 -6 72 -5 0 -7 -24 -5 -52z"/>
<path d="M2537 3423 c-4 -3 -7 -25 -7 -48 0 -49 26 -79 62 -72 22 4 21 4 -3 6
-39 2 -52 24 -47 76 6 47 5 49 -5 38z"/>
<path d="M2962 3414 c-7 -8 -8 -14 -2 -14 5 0 10 -15 10 -34 0 -46 9 -66 29
-66 14 1 14 2 -1 11 -12 7 -18 22 -18 49 0 31 4 40 18 41 13 0 14 2 2 6 -8 3
-17 9 -20 13 -3 4 -11 2 -18 -6z"/>
<path d="M3263 3415 c-6 -7 -8 -16 -3 -21 5 -5 10 -27 12 -49 2 -27 8 -40 18
-41 9 0 10 1 3 3 -8 3 -13 22 -13 49 0 35 4 44 18 45 13 0 14 2 2 6 -8 3 -17
9 -20 13 -3 4 -10 2 -17 -5z"/>
<path d="M2702 3403 c18 -4 24 -20 31 -78 3 -26 4 -25 6 8 1 46 -14 77 -37 76
-16 -1 -16 -2 0 -6z"/>
<path d="M2805 3403 c38 -10 47 -43 11 -43 -13 0 -29 -6 -35 -14 -16 -19 -3
-46 23 -45 20 0 20 1 -2 10 -30 12 -23 33 12 37 24 3 27 1 22 -16 -4 -11 -2
-23 4 -27 14 -9 13 78 -2 93 -7 7 -21 11 -32 11 -21 -1 -21 -1 -1 -6z"/>
<path d="M2891 3350 c1 -30 4 -41 6 -25 7 58 13 74 31 78 9 3 5 4 -10 4 -27
-1 -28 -3 -27 -57z"/>
<path d="M3213 3355 c0 -33 2 -45 4 -27 2 18 2 45 0 60 -2 15 -4 0 -4 -33z"/>
<path d="M3418 3403 c6 -2 18 -2 25 0 6 3 1 5 -13 5 -14 0 -19 -2 -12 -5z"/>
<path d="M3460 3375 c0 -19 -56 -21 -63 -2 -3 6 -5 -1 -5 -18 0 -16 2 -24 5
-17 2 6 20 12 39 12 27 0 34 4 34 20 0 11 -2 20 -5 20 -3 0 -5 -7 -5 -15z"/>
<path d="M3408 3308 c6 -6 18 -8 28 -6 14 3 12 5 -9 10 -19 3 -25 2 -19 -4z"/>
<path d="M158 3093 c7 -3 16 -2 19 1 4 3 -2 6 -13 5 -11 0 -14 -3 -6 -6z"/>
<path d="M228 3093 c6 -2 18 -2 25 0 6 3 1 5 -13 5 -14 0 -19 -2 -12 -5z"/>
<path d="M308 3093 c7 -3 16 -2 19 1 4 3 -2 6 -13 5 -11 0 -14 -3 -6 -6z"/>
<path d="M388 3093 c7 -3 16 -2 19 1 4 3 -2 6 -13 5 -11 0 -14 -3 -6 -6z"/>
<path d="M362 3050 c0 -14 2 -19 5 -12 2 6 2 18 0 25 -3 6 -5 1 -5 -13z"/>
<path d="M158 3053 c7 -3 16 -2 19 1 4 3 -2 6 -13 5 -11 0 -14 -3 -6 -6z"/>
<path d="M242 3054 c9 -3 19 -13 22 -22 3 -12 4 -12 3 3 -1 12 -10 21 -22 22
-15 1 -15 0 -3 -3z"/>
<path d="M300 3010 c0 -6 7 -10 15 -10 8 0 15 2 15 4 0 2 -7 6 -15 10 -8 3
-15 1 -15 -4z"/>
<path d="M158 2743 c7 -3 16 -2 19 1 4 3 -2 6 -13 5 -11 0 -14 -3 -6 -6z"/>
<path d="M230 2746 c0 -2 9 -6 20 -9 11 -3 18 -1 14 4 -5 9 -34 13 -34 5z"/>
<path d="M308 2743 c7 -3 16 -2 19 1 4 3 -2 6 -13 5 -11 0 -14 -3 -6 -6z"/>
<path d="M392 2744 c9 -3 19 -13 22 -22 3 -12 4 -12 3 3 -1 12 -10 21 -22 22
-15 1 -15 0 -3 -3z"/>
<path d="M362 2705 c0 -16 2 -22 5 -12 2 9 2 23 0 30 -3 6 -5 -1 -5 -18z"/>
<path d="M411 2684 c0 -11 3 -14 6 -6 3 7 2 16 -1 19 -3 4 -6 -2 -5 -13z"/>
<path d="M2374 2493 c-82 -75 -194 -177 -248 -227 -93 -85 -301 -275 -442
-405 -33 -31 -98 -90 -144 -131 -82 -75 -190 -173 -284 -261 -27 -25 -45 -49
-40 -52 5 -3 84 62 174 145 91 83 207 189 259 237 137 124 189 172 351 322 80
74 171 157 201 184 31 28 102 93 160 146 57 53 120 110 141 128 l36 31 89 -36
c48 -20 111 -45 138 -56 28 -11 64 -26 80 -34 17 -7 48 -20 70 -28 37 -14 68
-27 258 -107 39 -17 92 -37 117 -46 25 -9 50 -19 55 -24 6 -4 40 -19 75 -32
84 -32 264 -104 315 -127 22 -10 58 -23 80 -30 22 -7 51 -16 65 -21 14 -5 63
-15 110 -24 46 -8 103 -20 125 -26 22 -6 92 -22 155 -36 63 -13 167 -35 230
-49 234 -51 338 -74 450 -98 63 -14 132 -29 153 -35 22 -5 39 -5 43 0 3 5 -1
11 -8 13 -36 11 -153 38 -238 56 -52 11 -158 34 -235 51 -77 17 -192 42 -255
55 -63 14 -162 36 -220 48 -58 13 -152 33 -210 46 -112 23 -184 47 -320 105
-47 20 -107 45 -135 55 -27 10 -84 33 -125 50 -41 18 -124 52 -185 76 -60 25
-119 49 -130 54 -40 18 -315 130 -320 130 -3 0 -24 9 -48 19 -62 29 -172 71
-183 71 -6 0 -77 -61 -160 -137z"/>
<path d="M158 2413 c7 -3 16 -2 19 1 4 3 -2 6 -13 5 -11 0 -14 -3 -6 -6z"/>
<path d="M238 2413 c7 -3 16 -2 19 1 4 3 -2 6 -13 5 -11 0 -14 -3 -6 -6z"/>
<path d="M308 2413 c7 -3 16 -2 19 1 4 3 -2 6 -13 5 -11 0 -14 -3 -6 -6z"/>
<path d="M388 2413 c7 -3 16 -2 19 1 4 3 -2 6 -13 5 -11 0 -14 -3 -6 -6z"/>
<path d="M362 2370 c0 -14 2 -19 5 -12 2 6 2 18 0 25 -3 6 -5 1 -5 -13z"/>
<path d="M242 2374 c9 -3 19 -13 22 -22 3 -12 4 -12 3 3 -1 12 -10 21 -22 22
-15 1 -15 0 -3 -3z"/>
<path d="M150 2329 c0 -5 9 -9 20 -9 11 0 20 2 20 4 0 2 -9 6 -20 9 -11 3 -20
1 -20 -4z"/>
<path d="M228 2323 c6 -2 18 -2 25 0 6 3 1 5 -13 5 -14 0 -19 -2 -12 -5z"/>
<path d="M308 2323 c7 -3 16 -2 19 1 4 3 -2 6 -13 5 -11 0 -14 -3 -6 -6z"/>
<path d="M388 2323 c7 -3 16 -2 19 1 4 3 -2 6 -13 5 -11 0 -14 -3 -6 -6z"/>
<path d="M158 2063 c7 -3 16 -2 19 1 4 3 -2 6 -13 5 -11 0 -14 -3 -6 -6z"/>
<path d="M230 2066 c0 -2 9 -6 20 -9 11 -3 18 -1 14 4 -5 9 -34 13 -34 5z"/>
<path d="M308 2063 c7 -3 16 -2 19 1 4 3 -2 6 -13 5 -11 0 -14 -3 -6 -6z"/>
<path d="M392 2064 c9 -3 19 -13 22 -22 3 -12 4 -12 3 3 -1 12 -10 21 -22 22
-15 1 -15 0 -3 -3z"/>
<path d="M362 2020 c0 -14 2 -19 5 -12 2 6 2 18 0 25 -3 6 -5 1 -5 -13z"/>
<path d="M155 1999 c-4 -6 -5 -12 -2 -15 2 -3 7 2 10 11 7 17 1 20 -8 4z"/>
<path d="M362 1690 c0 -14 2 -19 5 -12 2 6 2 18 0 25 -3 6 -5 1 -5 -13z"/>
<path d="M228 1693 c6 -2 18 -2 25 0 6 3 1 5 -13 5 -14 0 -19 -2 -12 -5z"/>
<path d="M163 1643 c9 -2 23 -2 30 0 6 3 -1 5 -18 5 -16 0 -22 -2 -12 -5z"/>
<path d="M228 1643 c6 -2 18 -2 25 0 6 3 1 5 -13 5 -14 0 -19 -2 -12 -5z"/>
<path d="M308 1643 c7 -3 16 -2 19 1 4 3 -2 6 -13 5 -11 0 -14 -3 -6 -6z"/>
<path d="M388 1643 c7 -3 16 -2 19 1 4 3 -2 6 -13 5 -11 0 -14 -3 -6 -6z"/>
<path d="M230 1396 c0 -2 9 -6 20 -9 11 -3 18 -1 14 4 -5 9 -34 13 -34 5z"/>
<path d="M308 1393 c7 -3 16 -2 19 1 4 3 -2 6 -13 5 -11 0 -14 -3 -6 -6z"/>
<path d="M392 1394 c9 -3 19 -13 22 -22 3 -12 4 -12 3 3 -1 12 -10 21 -22 22
-15 1 -15 0 -3 -3z"/>
<path d="M362 1355 c0 -16 2 -22 5 -12 2 9 2 23 0 30 -3 6 -5 -1 -5 -18z"/>
<path d="M411 1334 c0 -11 3 -14 6 -6 3 7 2 16 -1 19 -3 4 -6 -2 -5 -13z"/>
<path d="M168 1313 c7 -3 16 -2 19 1 4 3 -2 6 -13 5 -11 0 -14 -3 -6 -6z"/>
<path d="M237 1014 c12 -3 24 -13 27 -22 3 -12 4 -11 3 3 -2 14 -10 21 -27 22
-21 1 -21 1 -3 -3z"/>
<path d="M410 982 c0 -6 -8 -13 -17 -15 -16 -4 -16 -5 -1 -6 18 -1 34 16 24
26 -3 4 -6 1 -6 -5z"/>
<path d="M228 963 c6 -2 18 -2 25 0 6 3 1 5 -13 5 -14 0 -19 -2 -12 -5z"/>
<path d="M308 963 c7 -3 16 -2 19 1 4 3 -2 6 -13 5 -11 0 -14 -3 -6 -6z"/>
<path d="M380 716 c0 -2 9 -6 20 -9 11 -3 18 -1 14 4 -5 9 -34 13 -34 5z"/>
<path d="M1603 325 c0 -27 2 -38 4 -22 2 15 2 37 0 50 -2 12 -4 0 -4 -28z"/>
<path d="M1340 350 c0 -5 -10 -11 -22 -11 -21 -1 -21 -2 -3 -6 11 -3 23 -10
26 -15 4 -6 7 2 7 16 0 14 -2 26 -4 26 -2 0 -4 -4 -4 -10z"/>
<path d="M2525 352 c-33 -7 -36 -17 -4 -16 30 1 46 9 32 16 -4 3 -17 3 -28 0z"/>
<path d="M3400 352 c-14 -2 -29 -7 -33 -11 -4 -4 6 -6 23 -3 27 4 30 1 30 -21
0 -14 3 -28 8 -30 7 -5 9 61 1 66 -2 2 -15 1 -29 -1z"/>
<path d="M3990 351 c0 -6 4 -13 10 -16 6 -3 7 1 4 9 -7 18 -14 21 -14 7z"/>
<path d="M4760 351 c0 -6 4 -13 10 -16 6 -3 7 1 4 9 -7 18 -14 21 -14 7z"/>
<path d="M1483 344 c18 -6 24 -49 7 -57 -6 -3 -5 -4 2 -3 7 2 13 16 13 32 0
21 -5 29 -20 31 -16 1 -16 1 -2 -3z"/>
<path d="M1658 343 c7 -3 16 -2 19 1 4 3 -2 6 -13 5 -11 0 -14 -3 -6 -6z"/>
<path d="M2286 341 c-3 -5 2 -7 13 -4 16 4 20 -1 24 -29 l5 -33 -2 35 c-1 34
-26 54 -40 31z"/>
<path d="M2428 343 c7 -3 16 -2 19 1 4 3 -2 6 -13 5 -11 0 -14 -3 -6 -6z"/>
<path d="M3298 343 c7 -3 16 -2 19 1 4 3 -2 6 -13 5 -11 0 -14 -3 -6 -6z"/>
<path d="M4088 343 c7 -3 16 -2 19 1 4 3 -2 6 -13 5 -11 0 -14 -3 -6 -6z"/>
<path d="M4143 315 c0 -22 2 -30 4 -17 2 12 2 30 0 40 -3 9 -5 -1 -4 -23z"/>
<path d="M4173 343 c9 -2 25 -2 35 0 9 3 1 5 -18 5 -19 0 -27 -2 -17 -5z"/>
<path d="M4838 343 c6 -2 18 -2 25 0 6 3 1 5 -13 5 -14 0 -19 -2 -12 -5z"/>
<path d="M4898 343 c7 -3 16 -2 19 1 4 3 -2 6 -13 5 -11 0 -14 -3 -6 -6z"/>
<path d="M4968 343 c7 -3 16 -2 19 1 4 3 -2 6 -13 5 -11 0 -14 -3 -6 -6z"/>
<path d="M5078 343 c7 -3 16 -2 19 1 4 3 -2 6 -13 5 -11 0 -14 -3 -6 -6z"/>
<path d="M930 320 c0 -6 60 -10 159 -10 96 0 162 4 166 10 4 7 -52 10 -159 10
-104 0 -166 -4 -166 -10z"/>
<path d="M4920 310 c0 -21 -24 -28 -33 -10 -3 6 -4 5 -3 -2 1 -7 12 -14 24
-16 18 -3 22 2 22 22 0 14 -2 26 -5 26 -3 0 -5 -9 -5 -20z"/>
<path d="M1320 290 c-23 -7 -23 -8 -3 -9 12 -1 25 4 28 9 3 6 5 10 3 9 -2 -1
-14 -5 -28 -9z"/>
<path d="M1648 288 c5 -5 16 -8 23 -6 8 3 3 7 -10 11 -17 4 -21 3 -13 -5z"/>
<path d="M2365 290 c-16 -7 -17 -9 -3 -9 9 -1 20 4 23 9 7 11 7 11 -20 0z"/>
<path d="M3360 290 c0 -6 7 -10 15 -10 8 0 15 2 15 4 0 2 -7 6 -15 10 -8 3
-15 1 -15 -4z"/>
<path d="M2428 283 c6 -2 18 -2 25 0 6 3 1 5 -13 5 -14 0 -19 -2 -12 -5z"/>
<path d="M3118 283 c7 -3 16 -2 19 1 4 3 -2 6 -13 5 -11 0 -14 -3 -6 -6z"/>
<path d="M3198 283 c6 -2 18 -2 25 0 6 3 1 5 -13 5 -14 0 -19 -2 -12 -5z"/>
<path d="M3298 283 c6 -2 18 -2 25 0 6 3 1 5 -13 5 -14 0 -19 -2 -12 -5z"/>
<path d="M4088 283 c7 -3 16 -2 19 1 4 3 -2 6 -13 5 -11 0 -14 -3 -6 -6z"/>
<path d="M5078 283 c7 -3 16 -2 19 1 4 3 -2 6 -13 5 -11 0 -14 -3 -6 -6z"/>
</g>
</svg>
