<?xml version="1.0" standalone="no"?>
<!DOCTYPE svg PUBLIC "-//W3C//DTD SVG 20010904//EN"
 "http://www.w3.org/TR/2001/REC-SVG-20010904/DTD/svg10.dtd">
<svg version="1.0" xmlns="http://www.w3.org/2000/svg"
 width="588.000000pt" height="360.000000pt" viewBox="0 0 588.000000 360.000000"
 preserveAspectRatio="xMidYMid meet">

<g transform="translate(0.000000,360.000000) scale(0.100000,-0.100000)"
fill="#000000" stroke="none">
<path d="M2602 3300 c1 -72 2 -78 7 -36 4 27 4 66 0 85 -5 25 -7 10 -7 -49z"/>
<path d="M3150 3370 c0 -5 5 -10 10 -10 6 0 10 5 10 10 0 6 -4 10 -10 10 -5 0
-10 -4 -10 -10z"/>
<path d="M3280 3306 c0 -41 5 -78 10 -81 6 -4 10 23 10 74 0 47 -4 81 -10 81
-6 0 -10 -31 -10 -74z"/>
<path d="M2491 3344 c-40 -51 -12 -125 46 -123 27 2 27 2 3 6 -14 3 -33 12
-42 20 -35 32 -13 107 35 116 22 4 22 4 0 6 -13 0 -30 -10 -42 -25z"/>
<path d="M3048 3363 c20 -4 22 -10 24 -76 l2 -72 5 69 c5 57 10 70 26 77 13 5
4 7 -30 7 -27 0 -40 -3 -27 -5z"/>
<path d="M2920 3343 c0 -6 -8 -14 -17 -16 -16 -4 -16 -5 -1 -6 13 -1 18 -12
20 -48 2 -28 8 -47 16 -49 7 -1 8 0 2 3 -5 2 -10 25 -10 49 0 35 4 44 18 45
13 0 14 2 2 6 -8 3 -18 11 -22 17 -6 8 -8 8 -8 -1z"/>
<path d="M3202 3335 c-7 -9 -8 -15 -2 -15 5 0 10 -15 10 -33 0 -35 23 -77 36
-64 4 4 2 7 -4 7 -7 0 -12 17 -12 45 0 25 5 45 11 45 6 0 4 7 -5 15 -18 18
-18 18 -34 0z"/>
<path d="M2648 3320 c18 -8 22 -18 24 -57 1 -39 2 -42 5 -14 7 53 -4 81 -30
80 l-22 0 23 -9z"/>
<path d="M2750 3322 c36 -11 38 -40 3 -44 -18 -2 -29 -10 -31 -22 -5 -26 12
-40 43 -32 24 6 26 10 23 54 -3 44 -5 47 -33 49 -28 2 -28 1 -5 -5z m28 -69
c-2 -10 -13 -19 -26 -21 -17 -3 -22 2 -22 17 0 16 6 21 26 21 19 0 25 -5 22
-17z"/>
<path d="M2831 3275 l2 -60 7 50 c4 28 3 54 -1 60 -5 5 -8 -16 -8 -50z"/>
<path d="M3163 3280 c0 -30 2 -43 4 -27 2 15 2 39 0 55 -2 15 -4 2 -4 -28z"/>
<path d="M3346 3314 c-19 -18 -21 -60 -4 -70 8 -5 9 -2 5 9 -5 14 0 17 28 17
40 0 50 12 35 40 -13 24 -43 26 -64 4z m57 -8 c7 -19 -1 -26 -30 -26 -22 0
-31 19 -16 33 11 12 41 7 46 -7z"/>
<path d="M3368 3223 c6 -2 18 -2 25 0 6 3 1 5 -13 5 -14 0 -19 -2 -12 -5z"/>
<path d="M108 3013 c7 -3 16 -2 19 1 4 3 -2 6 -13 5 -11 0 -14 -3 -6 -6z"/>
<path d="M178 3013 c7 -3 16 -2 19 1 4 3 -2 6 -13 5 -11 0 -14 -3 -6 -6z"/>
<path d="M162 2970 c0 -14 2 -19 5 -12 2 6 2 18 0 25 -3 6 -5 1 -5 -13z"/>
<path d="M2325 2657 c-28 -18 -93 -62 -145 -98 -120 -83 -228 -157 -352 -242
-54 -37 -142 -97 -195 -134 -96 -66 -258 -177 -398 -271 -38 -26 -74 -50 -80
-55 -5 -4 -36 -26 -68 -48 -31 -22 -55 -45 -51 -50 4 -7 13 -5 24 3 10 7 58
40 106 73 49 34 126 86 172 118 45 31 119 83 165 114 45 32 141 97 212 145 72
49 150 102 175 119 25 18 88 61 140 97 52 36 135 93 183 126 148 103 176 119
190 108 6 -5 37 -19 67 -30 71 -27 296 -118 337 -137 17 -8 35 -15 39 -15 4 0
26 -9 48 -19 39 -19 73 -33 199 -81 28 -12 66 -27 82 -35 17 -8 75 -32 130
-54 55 -21 147 -58 204 -81 56 -23 107 -38 112 -33 7 7 -71 42 -276 123 -38
15 -104 42 -145 59 -41 18 -93 39 -115 47 -22 8 -59 23 -82 34 -24 11 -46 20
-49 20 -3 0 -20 7 -37 15 -18 7 -79 33 -137 56 -58 23 -124 50 -147 60 -23 11
-45 19 -49 19 -4 0 -26 9 -48 19 -42 20 -147 61 -156 61 -3 0 -28 -15 -55 -33z"/>
<path d="M178 2583 c7 -3 16 -2 19 1 4 3 -2 6 -13 5 -11 0 -14 -3 -6 -6z"/>
<path d="M103 2533 c9 -2 23 -2 30 0 6 3 -1 5 -18 5 -16 0 -22 -2 -12 -5z"/>
<path d="M178 2533 c7 -3 16 -2 19 1 4 3 -2 6 -13 5 -11 0 -14 -3 -6 -6z"/>
<path d="M5030 2438 c-19 -5 -84 -20 -145 -33 -60 -13 -162 -36 -225 -50 -416
-92 -597 -131 -720 -156 -58 -12 -109 -26 -115 -30 -14 -14 53 -10 125 7 60
14 107 24 405 90 61 13 173 38 250 55 77 17 190 41 250 54 168 36 209 46 218
55 15 13 -7 17 -43 8z"/>
<path d="M108 2223 c7 -3 16 -2 19 1 4 3 -2 6 -13 5 -11 0 -14 -3 -6 -6z"/>
<path d="M162 2180 c0 -14 2 -19 5 -12 2 6 2 18 0 25 -3 6 -5 1 -5 -13z"/>
<path d="M3677 2153 c-13 -12 32 -30 64 -25 38 6 38 22 0 22 -16 0 -36 2 -43
5 -8 3 -17 2 -21 -2z"/>
<path d="M94 2139 c-3 -5 6 -9 20 -9 31 0 34 6 6 13 -11 3 -23 1 -26 -4z"/>
<path d="M170 2140 c0 -6 7 -10 15 -10 8 0 15 2 15 4 0 2 -7 6 -15 10 -8 3
-15 1 -15 -4z"/>
<path d="M178 1823 c7 -3 16 -2 19 1 4 3 -2 6 -13 5 -11 0 -14 -3 -6 -6z"/>
<path d="M162 1385 c0 -16 2 -22 5 -12 2 9 2 23 0 30 -3 6 -5 -1 -5 -18z"/>
<path d="M108 1343 c6 -2 18 -2 25 0 6 3 1 5 -13 5 -14 0 -19 -2 -12 -5z"/>
<path d="M178 1343 c7 -3 16 -2 19 1 4 3 -2 6 -13 5 -11 0 -14 -3 -6 -6z"/>
<path d="M178 1033 c6 -2 18 -2 25 0 6 3 1 5 -13 5 -14 0 -19 -2 -12 -5z"/>
<path d="M170 1000 c0 -6 7 -10 15 -10 8 0 15 2 15 4 0 2 -7 6 -15 10 -8 3
-15 1 -15 -4z"/>
<path d="M178 943 c7 -3 16 -2 19 1 4 3 -2 6 -13 5 -11 0 -14 -3 -6 -6z"/>
<path d="M170 630 c0 -5 7 -7 15 -4 8 4 15 8 15 10 0 2 -7 4 -15 4 -8 0 -15
-4 -15 -10z"/>
<path d="M4892 260 c0 -14 2 -19 5 -12 2 6 2 18 0 25 -3 6 -5 1 -5 -13z"/>
<path d="M1373 235 c0 -22 2 -30 4 -17 2 12 2 30 0 40 -3 9 -5 -1 -4 -23z"/>
<path d="M1503 264 c20 -6 24 -50 5 -57 -8 -2 -7 -3 2 -3 10 1 15 12 15 31 0
22 -5 30 -20 32 -16 1 -16 1 -2 -3z"/>
<path d="M1608 263 c7 -3 16 -2 19 1 4 3 -2 6 -13 5 -11 0 -14 -3 -6 -6z"/>
<path d="M2240 266 c0 -2 7 -7 16 -10 8 -3 12 -2 9 4 -6 10 -25 14 -25 6z"/>
<path d="M2383 264 c9 -3 15 -10 12 -15 -4 -5 -1 -9 5 -9 19 0 5 25 -16 27
-16 2 -16 1 -1 -3z"/>
<path d="M2478 263 c6 -2 18 -2 25 0 6 3 1 5 -13 5 -14 0 -19 -2 -12 -5z"/>
<path d="M3148 263 c7 -3 16 -2 19 1 4 3 -2 6 -13 5 -11 0 -14 -3 -6 -6z"/>
<path d="M3318 263 c7 -3 16 -2 19 1 4 3 -2 6 -13 5 -11 0 -14 -3 -6 -6z"/>
<path d="M3358 263 c6 -2 18 -2 25 0 6 3 1 5 -13 5 -14 0 -19 -2 -12 -5z"/>
<path d="M4014 256 c-9 -23 0 -51 16 -52 9 0 10 1 3 3 -7 3 -13 15 -13 29 0
30 36 34 43 4 4 -17 4 -16 3 2 -1 27 -43 38 -52 14z"/>
<path d="M4138 263 c7 -3 16 -2 19 1 4 3 -2 6 -13 5 -11 0 -14 -3 -6 -6z"/>
<path d="M4788 263 c7 -3 16 -2 19 1 4 3 -2 6 -13 5 -11 0 -14 -3 -6 -6z"/>
<path d="M4848 263 c7 -3 16 -2 19 1 4 3 -2 6 -13 5 -11 0 -14 -3 -6 -6z"/>
<path d="M4922 264 c9 -3 19 -15 22 -27 4 -18 4 -18 3 3 -1 17 -8 25 -22 27
-14 1 -15 0 -3 -3z"/>
<path d="M5028 263 c7 -3 16 -2 19 1 4 3 -2 6 -13 5 -11 0 -14 -3 -6 -6z"/>
<path d="M877 254 c-20 -20 7 -24 159 -24 128 0 165 3 162 13 -4 9 -46 13
-159 15 -86 1 -158 -1 -162 -4z"/>
<path d="M1248 253 c6 -2 18 -2 25 0 6 3 1 5 -13 5 -14 0 -19 -2 -12 -5z"/>
<path d="M1580 235 c0 -8 2 -15 4 -15 2 0 6 7 10 15 3 8 1 15 -4 15 -6 0 -10
-7 -10 -15z"/>
<path d="M2355 240 c-3 -6 1 -7 9 -4 18 7 21 14 7 14 -6 0 -13 -4 -16 -10z"/>
<path d="M3130 239 c0 -5 5 -7 10 -4 6 3 10 8 10 11 0 2 -4 4 -10 4 -5 0 -10
-5 -10 -11z"/>
<path d="M5002 228 c2 -16 10 -23 26 -24 20 -2 20 -1 1 3 -15 3 -19 10 -16 24
3 10 1 19 -5 19 -5 0 -8 -10 -6 -22z"/>
<path d="M4891 214 c0 -11 3 -14 6 -6 3 7 2 16 -1 19 -3 4 -6 -2 -5 -13z"/>
<path d="M3138 208 c6 -6 18 -8 28 -6 14 3 12 5 -9 10 -19 3 -25 2 -19 -4z"/>
<path d="M3238 208 c5 -5 16 -8 23 -6 8 3 3 7 -10 11 -17 4 -21 3 -13 -5z"/>
<path d="M1248 203 c6 -2 18 -2 25 0 6 3 1 5 -13 5 -14 0 -19 -2 -12 -5z"/>
<path d="M1608 203 c7 -3 16 -2 19 1 4 3 -2 6 -13 5 -11 0 -14 -3 -6 -6z"/>
<path d="M2298 203 c7 -3 16 -2 19 1 4 3 -2 6 -13 5 -11 0 -14 -3 -6 -6z"/>
<path d="M2378 203 c6 -2 18 -2 25 0 6 3 1 5 -13 5 -14 0 -19 -2 -12 -5z"/>
<path d="M3068 203 c7 -3 16 -2 19 1 4 3 -2 6 -13 5 -11 0 -14 -3 -6 -6z"/>
<path d="M3318 203 c7 -3 16 -2 19 1 4 3 -2 6 -13 5 -11 0 -14 -3 -6 -6z"/>
<path d="M3948 203 c7 -3 16 -2 19 1 4 3 -2 6 -13 5 -11 0 -14 -3 -6 -6z"/>
<path d="M4718 203 c7 -3 16 -2 19 1 4 3 -2 6 -13 5 -11 0 -14 -3 -6 -6z"/>
<path d="M4848 203 c7 -3 16 -2 19 1 4 3 -2 6 -13 5 -11 0 -14 -3 -6 -6z"/>
<path d="M4918 203 c7 -3 16 -2 19 1 4 3 -2 6 -13 5 -11 0 -14 -3 -6 -6z"/>
</g>
</svg>
