<svg width="1657" height="993" xmlns="http://www.w3.org/2000/svg" xmlns:xlink="http://www.w3.org/1999/xlink" xml:space="preserve" overflow="hidden"><defs><clipPath id="clip0"><rect x="4644" y="346" width="1657" height="993"/></clipPath><clipPath id="clip1"><rect x="4645" y="347" width="1653" height="990"/></clipPath><clipPath id="clip2"><rect x="4645" y="347" width="1653" height="990"/></clipPath><clipPath id="clip3"><rect x="4800" y="508" width="1465" height="612"/></clipPath><clipPath id="clip4"><rect x="4800" y="508" width="1465" height="612"/></clipPath><clipPath id="clip5"><rect x="4800" y="508" width="1465" height="612"/></clipPath><clipPath id="clip6"><rect x="4800" y="508" width="1465" height="612"/></clipPath><clipPath id="clip7"><rect x="4800" y="508" width="1465" height="612"/></clipPath><clipPath id="clip8"><rect x="4645" y="347" width="1653" height="990"/></clipPath><clipPath id="clip9"><rect x="4645" y="347" width="1653" height="990"/></clipPath><clipPath id="clip10"><rect x="4645" y="347" width="1653" height="990"/></clipPath><clipPath id="clip11"><rect x="4645" y="347" width="1653" height="990"/></clipPath><clipPath id="clip12"><rect x="4645" y="347" width="1653" height="990"/></clipPath><clipPath id="clip13"><rect x="4645" y="347" width="1653" height="990"/></clipPath><clipPath id="clip14"><rect x="4645" y="347" width="1653" height="990"/></clipPath><clipPath id="clip15"><rect x="4645" y="347" width="1653" height="990"/></clipPath><clipPath id="clip16"><rect x="4645" y="347" width="1653" height="990"/></clipPath><clipPath id="clip17"><rect x="4645" y="347" width="1653" height="990"/></clipPath><clipPath id="clip18"><rect x="4645" y="347" width="1653" height="990"/></clipPath><clipPath id="clip19"><rect x="4645" y="347" width="1653" height="990"/></clipPath><clipPath id="clip20"><rect x="4645" y="347" width="1653" height="990"/></clipPath><clipPath id="clip21"><rect x="4645" y="347" width="1653" height="990"/></clipPath><clipPath id="clip22"><rect x="4645" y="347" width="1653" height="990"/></clipPath><clipPath id="clip23"><rect x="4645" y="347" width="1653" height="990"/></clipPath><clipPath id="clip24"><rect x="4645" y="347" width="1653" height="990"/></clipPath><clipPath id="clip25"><rect x="4645" y="347" width="1653" height="990"/></clipPath><clipPath id="clip26"><rect x="4645" y="347" width="1653" height="990"/></clipPath></defs><g clip-path="url(#clip0)" transform="translate(-4644 -346)"><rect x="4645" y="347" width="1654" height="990" fill="#FFFFFF"/><g clip-path="url(#clip1)"><path d="M4800.5 1029.53 6261.5 1029.53M4800.5 942.531 6261.5 942.531M4800.5 855.528 6261.5 855.528M4800.5 768.525 6261.5 768.525M4800.5 681.523 6261.5 681.523M4800.5 594.52 6261.5 594.52M4800.5 508.5 6261.5 508.5" stroke="#D9D9D9" stroke-width="3.4375" stroke-linejoin="round" stroke-miterlimit="10" fill="none"/></g><g clip-path="url(#clip2)"><path d="M4800.5 1116.5 6261.5 1116.5" stroke="#D9D9D9" stroke-width="3.4375" stroke-linejoin="round" stroke-miterlimit="10" fill="none" fill-rule="evenodd"/></g><g clip-path="url(#clip3)"><path d="M4983 878 5348.18 565 5714.19 664.022 6079 724.024" stroke="#4472C4" stroke-width="10.3125" stroke-linecap="round" stroke-linejoin="round" stroke-miterlimit="10" fill="none"/></g><g clip-path="url(#clip4)"><path d="M4983 1114 5348.18 998 5714.19 1043.03 6079 1058.03" stroke="#ED7D31" stroke-width="10.3125" stroke-linecap="round" stroke-linejoin="round" stroke-miterlimit="10" fill="none"/></g><g clip-path="url(#clip5)"><path d="M4983 877 5348.18 845 5714.19 855.028 6079 860.028" stroke="#A5A5A5" stroke-width="10.3125" stroke-linecap="round" stroke-linejoin="round" stroke-miterlimit="10" fill="none"/></g><g clip-path="url(#clip6)"><path d="M4983 1086.04 5348.18 1089 5714.19 1073 6079 1073" stroke="#FFC000" stroke-width="10.3125" stroke-linecap="round" stroke-linejoin="round" stroke-miterlimit="10" fill="none"/></g><g clip-path="url(#clip7)"><path d="M4983 1079 5348.18 1084.04 5714.19 1085.04 6079 1085" stroke="#5B9BD5" stroke-width="10.3125" stroke-linecap="round" stroke-linejoin="round" stroke-miterlimit="10" fill="none"/></g><g clip-path="url(#clip8)"><text fill="#595959" font-family="Calibri,Calibri_MSFontService,sans-serif" font-weight="400" font-size="41" transform="matrix(1 0 0 1 4741.3 1128)">0</text></g><g clip-path="url(#clip9)"><text fill="#595959" font-family="Calibri,Calibri_MSFontService,sans-serif" font-weight="400" font-size="41" transform="matrix(1 0 0 1 4689.1 1041)">0.05</text></g><g clip-path="url(#clip10)"><text fill="#595959" font-family="Calibri,Calibri_MSFontService,sans-serif" font-weight="400" font-size="41" transform="matrix(1 0 0 1 4710 954)">0.1</text></g><g clip-path="url(#clip11)"><text fill="#595959" font-family="Calibri,Calibri_MSFontService,sans-serif" font-weight="400" font-size="41" transform="matrix(1 0 0 1 4689.1 867)">0.15</text></g><g clip-path="url(#clip12)"><text fill="#595959" font-family="Calibri,Calibri_MSFontService,sans-serif" font-weight="400" font-size="41" transform="matrix(1 0 0 1 4710 780)">0.2</text></g><g clip-path="url(#clip13)"><text fill="#595959" font-family="Calibri,Calibri_MSFontService,sans-serif" font-weight="400" font-size="41" transform="matrix(1 0 0 1 4689.1 694)">0.25</text></g><g clip-path="url(#clip14)"><text fill="#595959" font-family="Calibri,Calibri_MSFontService,sans-serif" font-weight="400" font-size="41" transform="matrix(1 0 0 1 4710 607)">0.3</text></g><g clip-path="url(#clip15)"><text fill="#595959" font-family="Calibri,Calibri_MSFontService,sans-serif" font-weight="400" font-size="41" transform="matrix(1 0 0 1 4689.1 520)">0.35</text></g><g clip-path="url(#clip16)"><text fill="#595959" font-family="Calibri,Calibri_MSFontService,sans-serif" font-weight="400" font-size="64" transform="matrix(1 0 0 1 5336.32 443)">Chart Title</text></g><g clip-path="url(#clip17)"><path d="M4898 1271 4986 1271" stroke="#4472C4" stroke-width="10.3125" stroke-linecap="round" stroke-linejoin="round" stroke-miterlimit="10" fill="none" fill-rule="evenodd"/></g><g clip-path="url(#clip18)"><text fill="#595959" font-family="Calibri,Calibri_MSFontService,sans-serif" font-weight="400" font-size="41" transform="matrix(1 0 0 1 4995.26 1283)">Bubble</text></g><g clip-path="url(#clip19)"><path d="M5160 1271 5248 1271" stroke="#ED7D31" stroke-width="10.3125" stroke-linecap="round" stroke-linejoin="round" stroke-miterlimit="10" fill="none" fill-rule="evenodd"/></g><g clip-path="url(#clip20)"><text fill="#595959" font-family="Calibri,Calibri_MSFontService,sans-serif" font-weight="400" font-size="41" transform="matrix(1 0 0 1 5257.34 1283)">Insert</text></g><g clip-path="url(#clip21)"><path d="M5402 1271 5490 1271" stroke="#A5A5A5" stroke-width="10.3125" stroke-linecap="round" stroke-linejoin="round" stroke-miterlimit="10" fill="none" fill-rule="evenodd"/></g><g clip-path="url(#clip22)"><text fill="#595959" font-family="Calibri,Calibri_MSFontService,sans-serif" font-weight="400" font-size="41" transform="matrix(1 0 0 1 5498.91 1283)">Select</text></g><g clip-path="url(#clip23)"><path d="M5647 1271 5735 1271" stroke="#FFC000" stroke-width="10.3125" stroke-linecap="round" stroke-linejoin="round" stroke-miterlimit="10" fill="none" fill-rule="evenodd"/></g><g clip-path="url(#clip24)"><text fill="#595959" font-family="Calibri,Calibri_MSFontService,sans-serif" font-weight="400" font-size="41" transform="matrix(1 0 0 1 5744.27 1283)">Sort</text></g><g clip-path="url(#clip25)"><path d="M5861 1271 5949 1271" stroke="#5B9BD5" stroke-width="10.3125" stroke-linecap="round" stroke-linejoin="round" stroke-miterlimit="10" fill="none" fill-rule="evenodd"/></g><g clip-path="url(#clip26)"><text fill="#595959" font-family="Calibri,Calibri_MSFontService,sans-serif" font-weight="400" font-size="41" transform="matrix(1 0 0 1 5957.79 1283)">Stable</text></g><rect x="4645.5" y="347.5" width="1654" height="990" stroke="#D9D9D9" stroke-width="3.4375" stroke-linejoin="round" stroke-miterlimit="10" fill="none"/></g></svg>