<svg width="1656" height="993" xmlns="http://www.w3.org/2000/svg" xmlns:xlink="http://www.w3.org/1999/xlink" xml:space="preserve" overflow="hidden"><defs><clipPath id="clip0"><rect x="4603" y="2539" width="1656" height="993"/></clipPath><clipPath id="clip1"><rect x="4603" y="2540" width="1654" height="990"/></clipPath><clipPath id="clip2"><rect x="4603" y="2540" width="1654" height="990"/></clipPath><clipPath id="clip3"><rect x="4755" y="2710" width="1455" height="662"/></clipPath><clipPath id="clip4"><rect x="4755" y="2710" width="1455" height="662"/></clipPath><clipPath id="clip5"><rect x="4755" y="2710" width="1455" height="662"/></clipPath><clipPath id="clip6"><rect x="4755" y="2710" width="1455" height="662"/></clipPath><clipPath id="clip7"><rect x="4755" y="2710" width="1455" height="662"/></clipPath><clipPath id="clip8"><rect x="4603" y="2540" width="1654" height="990"/></clipPath><clipPath id="clip9"><rect x="4603" y="2540" width="1654" height="990"/></clipPath><clipPath id="clip10"><rect x="4603" y="2540" width="1654" height="990"/></clipPath><clipPath id="clip11"><rect x="4603" y="2540" width="1654" height="990"/></clipPath><clipPath id="clip12"><rect x="4603" y="2540" width="1654" height="990"/></clipPath><clipPath id="clip13"><rect x="4603" y="2540" width="1654" height="990"/></clipPath><clipPath id="clip14"><rect x="4603" y="2540" width="1654" height="990"/></clipPath><clipPath id="clip15"><rect x="4603" y="2540" width="1654" height="990"/></clipPath><clipPath id="clip16"><rect x="4603" y="2540" width="1654" height="990"/></clipPath><clipPath id="clip17"><rect x="4603" y="2540" width="1654" height="990"/></clipPath><clipPath id="clip18"><rect x="4603" y="2540" width="1654" height="990"/></clipPath><clipPath id="clip19"><rect x="4603" y="2540" width="1654" height="990"/></clipPath><clipPath id="clip20"><rect x="4603" y="2540" width="1654" height="990"/></clipPath><clipPath id="clip21"><rect x="4603" y="2540" width="1654" height="990"/></clipPath><clipPath id="clip22"><rect x="4603" y="2540" width="1654" height="990"/></clipPath><clipPath id="clip23"><rect x="4603" y="2540" width="1654" height="990"/></clipPath><clipPath id="clip24"><rect x="4603" y="2540" width="1654" height="990"/></clipPath><clipPath id="clip25"><rect x="4603" y="2540" width="1654" height="990"/></clipPath><clipPath id="clip26"><rect x="4603" y="2540" width="1654" height="990"/></clipPath></defs><g clip-path="url(#clip0)" transform="translate(-4603 -2539)"><rect x="4604" y="2540" width="1653" height="990" fill="#FFFFFF"/><g clip-path="url(#clip1)"><path d="M4755.5 3275.61 6206.5 3275.61M4755.5 3181.6 6206.5 3181.6M4755.5 3086.6 6206.5 3086.6M4755.5 2992.6 6206.5 2992.6M4755.5 2898.6 6206.5 2898.6M4755.5 2804.59 6206.5 2804.59M4755.5 2710.5 6206.5 2710.5" stroke="#D9D9D9" stroke-width="3.4375" stroke-linejoin="round" stroke-miterlimit="10" fill="none"/></g><g clip-path="url(#clip2)"><path d="M4755.5 3369.5 6206.5 3369.5" stroke="#D9D9D9" stroke-width="3.4375" stroke-linejoin="round" stroke-miterlimit="10" fill="none" fill-rule="evenodd"/></g><g clip-path="url(#clip3)"><path d="M4937 3158 5300.17 2823 5662.19 2973.1 6025 3050.1" stroke="#4472C4" stroke-width="10.3125" stroke-linecap="round" stroke-linejoin="round" stroke-miterlimit="10" fill="none"/></g><g clip-path="url(#clip4)"><path d="M4937 3369 5300.17 3237 5662.19 3321.11 6025 3332.11" stroke="#ED7D31" stroke-width="10.3125" stroke-linecap="round" stroke-linejoin="round" stroke-miterlimit="10" fill="none"/></g><g clip-path="url(#clip5)"><path d="M4937 3168 5300.17 3117 5662.19 3145.1 6025 3155.1" stroke="#A5A5A5" stroke-width="10.3125" stroke-linecap="round" stroke-linejoin="round" stroke-miterlimit="10" fill="none"/></g><g clip-path="url(#clip6)"><path d="M4937 3369.11 5300.17 3370 5662.19 3369 6025 3369.11" stroke="#FFC000" stroke-width="10.3125" stroke-linecap="round" stroke-linejoin="round" stroke-miterlimit="10" fill="none"/></g><g clip-path="url(#clip7)"><path d="M4937 3370 5300.17 3369 5662.19 3369.11 6025 3369.11" stroke="#5B9BD5" stroke-width="10.3125" stroke-linecap="round" stroke-linejoin="round" stroke-miterlimit="10" fill="none"/></g><g clip-path="url(#clip8)"><text fill="#595959" font-family="Calibri,Calibri_MSFontService,sans-serif" font-weight="400" font-size="41" transform="matrix(1 0 0 1 4696.49 3381)">0</text></g><g clip-path="url(#clip9)"><text fill="#595959" font-family="Calibri,Calibri_MSFontService,sans-serif" font-weight="400" font-size="41" transform="matrix(1 0 0 1 4654.69 3287)">500</text></g><g clip-path="url(#clip10)"><text fill="#595959" font-family="Calibri,Calibri_MSFontService,sans-serif" font-weight="400" font-size="41" transform="matrix(1 0 0 1 4633.79 3193)">1000</text></g><g clip-path="url(#clip11)"><text fill="#595959" font-family="Calibri,Calibri_MSFontService,sans-serif" font-weight="400" font-size="41" transform="matrix(1 0 0 1 4633.79 3099)">1500</text></g><g clip-path="url(#clip12)"><text fill="#595959" font-family="Calibri,Calibri_MSFontService,sans-serif" font-weight="400" font-size="41" transform="matrix(1 0 0 1 4633.79 3004)">2000</text></g><g clip-path="url(#clip13)"><text fill="#595959" font-family="Calibri,Calibri_MSFontService,sans-serif" font-weight="400" font-size="41" transform="matrix(1 0 0 1 4633.79 2910)">2500</text></g><g clip-path="url(#clip14)"><text fill="#595959" font-family="Calibri,Calibri_MSFontService,sans-serif" font-weight="400" font-size="41" transform="matrix(1 0 0 1 4633.79 2816)">3000</text></g><g clip-path="url(#clip15)"><text fill="#595959" font-family="Calibri,Calibri_MSFontService,sans-serif" font-weight="400" font-size="41" transform="matrix(1 0 0 1 4633.79 2722)">3500</text></g><g clip-path="url(#clip16)"><text fill="#595959" font-family="Calibri,Calibri_MSFontService,sans-serif" font-weight="400" font-size="64" transform="matrix(1 0 0 1 5295.07 2636)">Chart Title</text></g><g clip-path="url(#clip17)"><path d="M4857 3464 4945 3464" stroke="#4472C4" stroke-width="10.3125" stroke-linecap="round" stroke-linejoin="round" stroke-miterlimit="10" fill="none" fill-rule="evenodd"/></g><g clip-path="url(#clip18)"><text fill="#595959" font-family="Calibri,Calibri_MSFontService,sans-serif" font-weight="400" font-size="41" transform="matrix(1 0 0 1 4954.01 3476)">Bubble</text></g><g clip-path="url(#clip19)"><path d="M5119 3464 5207 3464" stroke="#ED7D31" stroke-width="10.3125" stroke-linecap="round" stroke-linejoin="round" stroke-miterlimit="10" fill="none" fill-rule="evenodd"/></g><g clip-path="url(#clip20)"><text fill="#595959" font-family="Calibri,Calibri_MSFontService,sans-serif" font-weight="400" font-size="41" transform="matrix(1 0 0 1 5216.09 3476)">Insert</text></g><g clip-path="url(#clip21)"><path d="M5360 3464 5448 3464" stroke="#A5A5A5" stroke-width="10.3125" stroke-linecap="round" stroke-linejoin="round" stroke-miterlimit="10" fill="none" fill-rule="evenodd"/></g><g clip-path="url(#clip22)"><text fill="#595959" font-family="Calibri,Calibri_MSFontService,sans-serif" font-weight="400" font-size="41" transform="matrix(1 0 0 1 5457.66 3476)">Select</text></g><g clip-path="url(#clip23)"><path d="M5606 3464 5694 3464" stroke="#FFC000" stroke-width="10.3125" stroke-linecap="round" stroke-linejoin="round" stroke-miterlimit="10" fill="none" fill-rule="evenodd"/></g><g clip-path="url(#clip24)"><text fill="#595959" font-family="Calibri,Calibri_MSFontService,sans-serif" font-weight="400" font-size="41" transform="matrix(1 0 0 1 5703.02 3476)">Sort</text></g><g clip-path="url(#clip25)"><path d="M5819 3464 5907 3464" stroke="#5B9BD5" stroke-width="10.3125" stroke-linecap="round" stroke-linejoin="round" stroke-miterlimit="10" fill="none" fill-rule="evenodd"/></g><g clip-path="url(#clip26)"><text fill="#595959" font-family="Calibri,Calibri_MSFontService,sans-serif" font-weight="400" font-size="41" transform="matrix(1 0 0 1 5916.54 3476)">Stable</text></g><rect x="4604.5" y="2540.5" width="1653" height="990" stroke="#D9D9D9" stroke-width="3.4375" stroke-linejoin="round" stroke-miterlimit="10" fill="none"/></g></svg>