<svg width="1656" height="992" xmlns="http://www.w3.org/2000/svg" xmlns:xlink="http://www.w3.org/1999/xlink" xml:space="preserve" overflow="hidden"><defs><clipPath id="clip0"><rect x="4596" y="1457" width="1656" height="992"/></clipPath><clipPath id="clip1"><rect x="4597" y="1457" width="1653" height="990"/></clipPath><clipPath id="clip2"><rect x="4597" y="1457" width="1653" height="990"/></clipPath><clipPath id="clip3"><rect x="4706" y="1627" width="1497" height="663"/></clipPath><clipPath id="clip4"><rect x="4706" y="1627" width="1497" height="663"/></clipPath><clipPath id="clip5"><rect x="4706" y="1627" width="1497" height="663"/></clipPath><clipPath id="clip6"><rect x="4706" y="1627" width="1497" height="663"/></clipPath><clipPath id="clip7"><rect x="4706" y="1627" width="1497" height="663"/></clipPath><clipPath id="clip8"><rect x="4597" y="1457" width="1653" height="990"/></clipPath><clipPath id="clip9"><rect x="4597" y="1457" width="1653" height="990"/></clipPath><clipPath id="clip10"><rect x="4597" y="1457" width="1653" height="990"/></clipPath><clipPath id="clip11"><rect x="4597" y="1457" width="1653" height="990"/></clipPath><clipPath id="clip12"><rect x="4597" y="1457" width="1653" height="990"/></clipPath><clipPath id="clip13"><rect x="4597" y="1457" width="1653" height="990"/></clipPath><clipPath id="clip14"><rect x="4597" y="1457" width="1653" height="990"/></clipPath><clipPath id="clip15"><rect x="4597" y="1457" width="1653" height="990"/></clipPath><clipPath id="clip16"><rect x="4597" y="1457" width="1653" height="990"/></clipPath><clipPath id="clip17"><rect x="4597" y="1457" width="1653" height="990"/></clipPath><clipPath id="clip18"><rect x="4597" y="1457" width="1653" height="990"/></clipPath><clipPath id="clip19"><rect x="4597" y="1457" width="1653" height="990"/></clipPath><clipPath id="clip20"><rect x="4597" y="1457" width="1653" height="990"/></clipPath><clipPath id="clip21"><rect x="4597" y="1457" width="1653" height="990"/></clipPath><clipPath id="clip22"><rect x="4597" y="1457" width="1653" height="990"/></clipPath><clipPath id="clip23"><rect x="4597" y="1457" width="1653" height="990"/></clipPath><clipPath id="clip24"><rect x="4597" y="1457" width="1653" height="990"/></clipPath><clipPath id="clip25"><rect x="4597" y="1457" width="1653" height="990"/></clipPath></defs><g clip-path="url(#clip0)" transform="translate(-4596 -1457)"><rect x="4597" y="1458" width="1653" height="989" fill="#FFFFFF"/><g clip-path="url(#clip1)"><path d="M4706.5 2176.57 6200.5 2176.57M4706.5 2066.57 6200.5 2066.57M4706.5 1957.56 6200.5 1957.56M4706.5 1847.56 6200.5 1847.56M4706.5 1737.56 6200.5 1737.56M4706.5 1627.5 6200.5 1627.5" stroke="#D9D9D9" stroke-width="3.4375" stroke-linejoin="round" stroke-miterlimit="10" fill="none"/></g><g clip-path="url(#clip2)"><path d="M4706.5 2286.5 6200.5 2286.5" stroke="#D9D9D9" stroke-width="3.4375" stroke-linejoin="round" stroke-miterlimit="10" fill="none" fill-rule="evenodd"/></g><g clip-path="url(#clip3)"><path d="M4894 1959 5267.17 1702 5640.19 1853.06 6013 1770.06" stroke="#4472C4" stroke-width="10.3125" stroke-linecap="round" stroke-linejoin="round" stroke-miterlimit="10" fill="none"/></g><g clip-path="url(#clip4)"><path d="M4894 2286 5267.17 2177 5640.19 2243.07 6013 2221.07" stroke="#ED7D31" stroke-width="10.3125" stroke-linecap="round" stroke-linejoin="round" stroke-miterlimit="10" fill="none"/></g><g clip-path="url(#clip5)"><path d="M4894 2013.07 5267.17 2023.07 5640.19 1839 6013 2048" stroke="#A5A5A5" stroke-width="10.3125" stroke-linecap="round" stroke-linejoin="round" stroke-miterlimit="10" fill="none"/></g><g clip-path="url(#clip6)"><path d="M4894 2283.07 5267.17 2284 5640.19 2280 6013 2281.07" stroke="#FFC000" stroke-width="10.3125" stroke-linecap="round" stroke-linejoin="round" stroke-miterlimit="10" fill="none"/></g><g clip-path="url(#clip7)"><path d="M4894 2283.07 5267.17 2284 5640.19 2282 6013 2284.07" stroke="#5B9BD5" stroke-width="10.3125" stroke-linecap="round" stroke-linejoin="round" stroke-miterlimit="10" fill="none"/></g><g clip-path="url(#clip8)"><text fill="#595959" font-family="Calibri,Calibri_MSFontService,sans-serif" font-weight="400" font-size="41" transform="matrix(1 0 0 1 4647.81 2298)">0</text></g><g clip-path="url(#clip9)"><text fill="#595959" font-family="Calibri,Calibri_MSFontService,sans-serif" font-weight="400" font-size="41" transform="matrix(1 0 0 1 4647.81 2188)">5</text></g><g clip-path="url(#clip10)"><text fill="#595959" font-family="Calibri,Calibri_MSFontService,sans-serif" font-weight="400" font-size="41" transform="matrix(1 0 0 1 4626.91 2079)">10</text></g><g clip-path="url(#clip11)"><text fill="#595959" font-family="Calibri,Calibri_MSFontService,sans-serif" font-weight="400" font-size="41" transform="matrix(1 0 0 1 4626.91 1969)">15</text></g><g clip-path="url(#clip12)"><text fill="#595959" font-family="Calibri,Calibri_MSFontService,sans-serif" font-weight="400" font-size="41" transform="matrix(1 0 0 1 4626.91 1859)">20</text></g><g clip-path="url(#clip13)"><text fill="#595959" font-family="Calibri,Calibri_MSFontService,sans-serif" font-weight="400" font-size="41" transform="matrix(1 0 0 1 4626.91 1749)">25</text></g><g clip-path="url(#clip14)"><text fill="#595959" font-family="Calibri,Calibri_MSFontService,sans-serif" font-weight="400" font-size="41" transform="matrix(1 0 0 1 4626.91 1639)">30</text></g><g clip-path="url(#clip15)"><text fill="#595959" font-family="Calibri,Calibri_MSFontService,sans-serif" font-weight="400" font-size="64" transform="matrix(1 0 0 1 5288.2 1553)">Chart Title</text></g><g clip-path="url(#clip16)"><path d="M4850 2381 4938 2381" stroke="#4472C4" stroke-width="10.3125" stroke-linecap="round" stroke-linejoin="round" stroke-miterlimit="10" fill="none" fill-rule="evenodd"/></g><g clip-path="url(#clip17)"><text fill="#595959" font-family="Calibri,Calibri_MSFontService,sans-serif" font-weight="400" font-size="41" transform="matrix(1 0 0 1 4947.14 2393)">Bubble</text></g><g clip-path="url(#clip18)"><path d="M5112 2381 5200 2381" stroke="#ED7D31" stroke-width="10.3125" stroke-linecap="round" stroke-linejoin="round" stroke-miterlimit="10" fill="none" fill-rule="evenodd"/></g><g clip-path="url(#clip19)"><text fill="#595959" font-family="Calibri,Calibri_MSFontService,sans-serif" font-weight="400" font-size="41" transform="matrix(1 0 0 1 5209.22 2393)">Insert</text></g><g clip-path="url(#clip20)"><path d="M5354 2381 5442 2381" stroke="#A5A5A5" stroke-width="10.3125" stroke-linecap="round" stroke-linejoin="round" stroke-miterlimit="10" fill="none" fill-rule="evenodd"/></g><g clip-path="url(#clip21)"><text fill="#595959" font-family="Calibri,Calibri_MSFontService,sans-serif" font-weight="400" font-size="41" transform="matrix(1 0 0 1 5450.79 2393)">Select</text></g><g clip-path="url(#clip22)"><path d="M5599 2381 5687 2381" stroke="#FFC000" stroke-width="10.3125" stroke-linecap="round" stroke-linejoin="round" stroke-miterlimit="10" fill="none" fill-rule="evenodd"/></g><g clip-path="url(#clip23)"><text fill="#595959" font-family="Calibri,Calibri_MSFontService,sans-serif" font-weight="400" font-size="41" transform="matrix(1 0 0 1 5696.14 2393)">Sort</text></g><g clip-path="url(#clip24)"><path d="M5812 2381 5900 2381" stroke="#5B9BD5" stroke-width="10.3125" stroke-linecap="round" stroke-linejoin="round" stroke-miterlimit="10" fill="none" fill-rule="evenodd"/></g><g clip-path="url(#clip25)"><text fill="#595959" font-family="Calibri,Calibri_MSFontService,sans-serif" font-weight="400" font-size="41" transform="matrix(1 0 0 1 5909.66 2393)">Stable</text></g><rect x="4597.5" y="1458.5" width="1653" height="989" stroke="#D9D9D9" stroke-width="3.4375" stroke-linejoin="round" stroke-miterlimit="10" fill="none"/></g></svg>