<svg width="3251" height="1952" xmlns="http://www.w3.org/2000/svg" xmlns:xlink="http://www.w3.org/1999/xlink" xml:space="preserve" overflow="hidden"><defs><clipPath id="clip0"><rect x="-1" y="838" width="3251" height="1952"/></clipPath><clipPath id="clip1"><rect x="0" y="838" width="3248" height="1949"/></clipPath><clipPath id="clip2"><rect x="0" y="838" width="3248" height="1949"/></clipPath><clipPath id="clip3"><rect x="291" y="1008" width="2910" height="1463"/></clipPath><clipPath id="clip4"><rect x="291" y="1008" width="2910" height="1463"/></clipPath><clipPath id="clip5"><rect x="291" y="1008" width="2910" height="1463"/></clipPath><clipPath id="clip6"><rect x="291" y="1008" width="2910" height="1463"/></clipPath><clipPath id="clip7"><rect x="291" y="1008" width="2910" height="1463"/></clipPath><clipPath id="clip8"><rect x="291" y="1008" width="2910" height="1463"/></clipPath><clipPath id="clip9"><rect x="0" y="838" width="3248" height="1949"/></clipPath><clipPath id="clip10"><rect x="0" y="838" width="3248" height="1949"/></clipPath><clipPath id="clip11"><rect x="0" y="838" width="3248" height="1949"/></clipPath><clipPath id="clip12"><rect x="0" y="838" width="3248" height="1949"/></clipPath><clipPath id="clip13"><rect x="0" y="838" width="3248" height="1949"/></clipPath><clipPath id="clip14"><rect x="0" y="838" width="3248" height="1949"/></clipPath><clipPath id="clip15"><rect x="0" y="838" width="3248" height="1949"/></clipPath><clipPath id="clip16"><rect x="0" y="838" width="3248" height="1949"/></clipPath><clipPath id="clip17"><rect x="0" y="838" width="3248" height="1949"/></clipPath><clipPath id="clip18"><rect x="0" y="838" width="3248" height="1949"/></clipPath><clipPath id="clip19"><rect x="0" y="838" width="3248" height="1949"/></clipPath><clipPath id="clip20"><rect x="0" y="838" width="3248" height="1949"/></clipPath><clipPath id="clip21"><rect x="0" y="838" width="3248" height="1949"/></clipPath><clipPath id="clip22"><rect x="0" y="838" width="3248" height="1949"/></clipPath><clipPath id="clip23"><rect x="0" y="838" width="3248" height="1949"/></clipPath><clipPath id="clip24"><rect x="0" y="838" width="3248" height="1949"/></clipPath><clipPath id="clip25"><rect x="0" y="838" width="3248" height="1949"/></clipPath><clipPath id="clip26"><rect x="0" y="838" width="3248" height="1949"/></clipPath><clipPath id="clip27"><rect x="0" y="838" width="3248" height="1949"/></clipPath><clipPath id="clip28"><rect x="0" y="838" width="3248" height="1949"/></clipPath><clipPath id="clip29"><rect x="0" y="838" width="3248" height="1949"/></clipPath><clipPath id="clip30"><rect x="0" y="838" width="3248" height="1949"/></clipPath><clipPath id="clip31"><rect x="0" y="838" width="3248" height="1949"/></clipPath><clipPath id="clip32"><rect x="0" y="838" width="3248" height="1949"/></clipPath><clipPath id="clip33"><rect x="0" y="838" width="3248" height="1949"/></clipPath><clipPath id="clip34"><rect x="0" y="838" width="3248" height="1949"/></clipPath><clipPath id="clip35"><rect x="0" y="838" width="3248" height="1949"/></clipPath><clipPath id="clip36"><rect x="0" y="838" width="3248" height="1949"/></clipPath><clipPath id="clip37"><rect x="0" y="838" width="3248" height="1949"/></clipPath></defs><g clip-path="url(#clip0)" transform="translate(1 -838)"><rect x="0" y="839" width="3248" height="1949" fill="#FFFFFF"/><g clip-path="url(#clip1)"><path d="M291.5 2468.5 3197.5 2468.5M291.5 2259.57 3197.5 2259.57M291.5 2051.57 3197.5 2051.57M291.5 1634.55 3197.5 1634.55M291.5 1425.55 3197.5 1425.55M291.5 1217.54 3197.5 1217.54M291.5 1008.5 3197.5 1008.5" stroke="#D9D9D9" stroke-width="3.4375" stroke-linejoin="round" stroke-miterlimit="10" fill="none"/></g><g clip-path="url(#clip2)"><path d="M291.5 1842.5 3197.5 1842.5" stroke="#D9D9D9" stroke-width="3.4375" stroke-linejoin="round" stroke-miterlimit="10" fill="none" fill-rule="evenodd"/></g><g clip-path="url(#clip3)"><path d="M534 2410 1018.03 2196.07 1502.05 1965.06 1987.07 1711.06 2471.08 1517.05 2955 1280" stroke="#4472C4" stroke-width="10.3125" stroke-linecap="round" stroke-linejoin="round" stroke-miterlimit="10" fill="none"/></g><g clip-path="url(#clip4)"><path d="M534 2200 1018.03 2029.07 1502.05 1832.06 1987.07 1610.05 2471.08 1418.05 2955 1195" stroke="#ED7D31" stroke-width="10.3125" stroke-linecap="round" stroke-linejoin="round" stroke-miterlimit="10" fill="none"/></g><g clip-path="url(#clip5)"><path d="M534 2260 1018.03 2093.07 1502.05 1897.06 1987.07 1681.06 2471.08 1477.05 2955 1254" stroke="#A5A5A5" stroke-width="10.3125" stroke-linecap="round" stroke-linejoin="round" stroke-miterlimit="10" fill="none"/></g><g clip-path="url(#clip6)"><path d="M534 2293 1018.03 2149.07 1502.05 1956.06 1987.07 1744.06 2471.08 1536.05 2955 1313" stroke="#FFC000" stroke-width="10.3125" stroke-linecap="round" stroke-linejoin="round" stroke-miterlimit="10" fill="none"/></g><g clip-path="url(#clip7)"><path d="M534 2122.07 1018.03 2176 1502.05 2009.07 1987.07 1805.06 2471.08 1596.05 2955 1365" stroke="#5B9BD5" stroke-width="10.3125" stroke-linecap="round" stroke-linejoin="round" stroke-miterlimit="10" fill="none"/></g><g clip-path="url(#clip8)"><path d="M534 1841 1018.03 1836.06 1502.05 1831.06 1987.07 1790.06 2471.08 1635.05 2955 1408" stroke="#70AD47" stroke-width="10.3125" stroke-linecap="round" stroke-linejoin="round" stroke-miterlimit="10" fill="none"/></g><g clip-path="url(#clip9)"><text fill="#595959" font-family="Calibri,Calibri_MSFontService,sans-serif" font-weight="400" font-size="41" transform="matrix(1 0 0 1 159.087 2480)">0.001</text></g><g clip-path="url(#clip10)"><text fill="#595959" font-family="Calibri,Calibri_MSFontService,sans-serif" font-weight="400" font-size="41" transform="matrix(1 0 0 1 179.987 2271)">0.01</text></g><g clip-path="url(#clip11)"><text fill="#595959" font-family="Calibri,Calibri_MSFontService,sans-serif" font-weight="400" font-size="41" transform="matrix(1 0 0 1 200.887 2063)">0.1</text></g><g clip-path="url(#clip12)"><text fill="#595959" font-family="Calibri,Calibri_MSFontService,sans-serif" font-weight="400" font-size="41" transform="matrix(1 0 0 1 232.192 1854)">1</text></g><g clip-path="url(#clip13)"><text fill="#595959" font-family="Calibri,Calibri_MSFontService,sans-serif" font-weight="400" font-size="41" transform="matrix(1 0 0 1 211.292 1646)">10</text></g><g clip-path="url(#clip14)"><text fill="#595959" font-family="Calibri,Calibri_MSFontService,sans-serif" font-weight="400" font-size="41" transform="matrix(1 0 0 1 190.392 1437)">100</text></g><g clip-path="url(#clip15)"><text fill="#595959" font-family="Calibri,Calibri_MSFontService,sans-serif" font-weight="400" font-size="41" transform="matrix(1 0 0 1 169.492 1229)">1000</text></g><g clip-path="url(#clip16)"><text fill="#595959" font-family="Calibri,Calibri_MSFontService,sans-serif" font-weight="400" font-size="41" transform="matrix(1 0 0 1 148.592 1020)">10000</text></g><g clip-path="url(#clip17)"><text fill="#595959" font-family="Calibri,Calibri_MSFontService,sans-serif" font-weight="400" font-size="41" transform="matrix(1 0 0 1 512.647 2533)">10</text></g><g clip-path="url(#clip18)"><text fill="#595959" font-family="Calibri,Calibri_MSFontService,sans-serif" font-weight="400" font-size="41" transform="matrix(1 0 0 1 986.573 2533)">100</text></g><g clip-path="url(#clip19)"><text fill="#595959" font-family="Calibri,Calibri_MSFontService,sans-serif" font-weight="400" font-size="41" transform="matrix(1 0 0 1 1460.5 2533)">1000</text></g><g clip-path="url(#clip20)"><text fill="#595959" font-family="Calibri,Calibri_MSFontService,sans-serif" font-weight="400" font-size="41" transform="matrix(1 0 0 1 1934.42 2533)">10000</text></g><g clip-path="url(#clip21)"><text fill="#595959" font-family="Calibri,Calibri_MSFontService,sans-serif" font-weight="400" font-size="41" transform="matrix(1 0 0 1 2408.35 2533)">100000</text></g><g clip-path="url(#clip22)"><text fill="#595959" font-family="Calibri,Calibri_MSFontService,sans-serif" font-weight="400" font-size="41" transform="matrix(1 0 0 1 2882.28 2533)">1000000</text></g><g clip-path="url(#clip23)"><text fill="#595959" font-family="Calibri,Calibri_MSFontService,sans-serif" font-weight="400" font-size="55" transform="matrix(6.12323e-17 -1 1 6.12323e-17 109.29 1810)">Temps</text></g><g clip-path="url(#clip24)"><text fill="#595959" font-family="Calibri,Calibri_MSFontService,sans-serif" font-weight="400" font-size="55" transform="matrix(1 0 0 1 1541.71 2610)">Taille des vecteurs</text></g><g clip-path="url(#clip25)"><text fill="#595959" font-family="Calibri,Calibri_MSFontService,sans-serif" font-weight="400" font-size="64" transform="matrix(1 0 0 1 1505.61 934)">Aléatoire</text></g><g clip-path="url(#clip26)"><path d="M240 2721 328 2721" stroke="#4472C4" stroke-width="10.3125" stroke-linecap="round" stroke-linejoin="round" stroke-miterlimit="10" fill="none" fill-rule="evenodd"/></g><g clip-path="url(#clip27)"><text fill="#595959" font-family="Calibri,Calibri_MSFontService,sans-serif" font-weight="400" font-size="41" transform="matrix(1 0 0 1 337.756 2733)">Tri rapide [ms]</text></g><g clip-path="url(#clip28)"><path d="M659 2721 747 2721" stroke="#ED7D31" stroke-width="10.3125" stroke-linecap="round" stroke-linejoin="round" stroke-miterlimit="10" fill="none" fill-rule="evenodd"/></g><g clip-path="url(#clip29)"><text fill="#595959" font-family="Calibri,Calibri_MSFontService,sans-serif" font-weight="400" font-size="41" transform="matrix(1 0 0 1 755.89 2733)">Tri par base 1 [ms]</text></g><g clip-path="url(#clip30)"><path d="M1143 2721 1231 2721" stroke="#A5A5A5" stroke-width="10.3125" stroke-linecap="round" stroke-linejoin="round" stroke-miterlimit="10" fill="none" fill-rule="evenodd"/></g><g clip-path="url(#clip31)"><text fill="#595959" font-family="Calibri,Calibri_MSFontService,sans-serif" font-weight="400" font-size="41" transform="matrix(1 0 0 1 1240 2733)">Tri par base 2 [ms]</text></g><g clip-path="url(#clip32)"><path d="M1627 2721 1715 2721" stroke="#FFC000" stroke-width="10.3125" stroke-linecap="round" stroke-linejoin="round" stroke-miterlimit="10" fill="none" fill-rule="evenodd"/></g><g clip-path="url(#clip33)"><text fill="#595959" font-family="Calibri,Calibri_MSFontService,sans-serif" font-weight="400" font-size="41" transform="matrix(1 0 0 1 1724.11 2733)">Tri par base 4 [ms]</text></g><g clip-path="url(#clip34)"><path d="M2111 2721 2199 2721" stroke="#5B9BD5" stroke-width="10.3125" stroke-linecap="round" stroke-linejoin="round" stroke-miterlimit="10" fill="none" fill-rule="evenodd"/></g><g clip-path="url(#clip35)"><text fill="#595959" font-family="Calibri,Calibri_MSFontService,sans-serif" font-weight="400" font-size="41" transform="matrix(1 0 0 1 2208.22 2733)">Tri par base 8 [ms]</text></g><g clip-path="url(#clip36)"><path d="M2595 2721 2683 2721" stroke="#70AD47" stroke-width="10.3125" stroke-linecap="round" stroke-linejoin="round" stroke-miterlimit="10" fill="none" fill-rule="evenodd"/></g><g clip-path="url(#clip37)"><text fill="#595959" font-family="Calibri,Calibri_MSFontService,sans-serif" font-weight="400" font-size="41" transform="matrix(1 0 0 1 2692.34 2733)">Tri par base 16 [ms]</text></g><rect x="0.499836" y="839.5" width="3248" height="1949" stroke="#D9D9D9" stroke-width="3.4375" stroke-linejoin="round" stroke-miterlimit="10" fill="none"/></g></svg>