<svg width="3251" height="1952" xmlns="http://www.w3.org/2000/svg" xmlns:xlink="http://www.w3.org/1999/xlink" xml:space="preserve" overflow="hidden"><defs><clipPath id="clip0"><rect x="2388" y="743" width="3251" height="1952"/></clipPath><clipPath id="clip1"><rect x="2389" y="744" width="3248" height="1949"/></clipPath><clipPath id="clip2"><rect x="2389" y="744" width="3248" height="1949"/></clipPath><clipPath id="clip3"><rect x="2680" y="914" width="2910" height="1462"/></clipPath><clipPath id="clip4"><rect x="2680" y="914" width="2910" height="1462"/></clipPath><clipPath id="clip5"><rect x="2680" y="914" width="2910" height="1462"/></clipPath><clipPath id="clip6"><rect x="2680" y="914" width="2910" height="1462"/></clipPath><clipPath id="clip7"><rect x="2680" y="914" width="2910" height="1462"/></clipPath><clipPath id="clip8"><rect x="2680" y="914" width="2910" height="1462"/></clipPath><clipPath id="clip9"><rect x="2389" y="744" width="3248" height="1949"/></clipPath><clipPath id="clip10"><rect x="2389" y="744" width="3248" height="1949"/></clipPath><clipPath id="clip11"><rect x="2389" y="744" width="3248" height="1949"/></clipPath><clipPath id="clip12"><rect x="2389" y="744" width="3248" height="1949"/></clipPath><clipPath id="clip13"><rect x="2389" y="744" width="3248" height="1949"/></clipPath><clipPath id="clip14"><rect x="2389" y="744" width="3248" height="1949"/></clipPath><clipPath id="clip15"><rect x="2389" y="744" width="3248" height="1949"/></clipPath><clipPath id="clip16"><rect x="2389" y="744" width="3248" height="1949"/></clipPath><clipPath id="clip17"><rect x="2389" y="744" width="3248" height="1949"/></clipPath><clipPath id="clip18"><rect x="2389" y="744" width="3248" height="1949"/></clipPath><clipPath id="clip19"><rect x="2389" y="744" width="3248" height="1949"/></clipPath><clipPath id="clip20"><rect x="2389" y="744" width="3248" height="1949"/></clipPath><clipPath id="clip21"><rect x="2389" y="744" width="3248" height="1949"/></clipPath><clipPath id="clip22"><rect x="2389" y="744" width="3248" height="1949"/></clipPath><clipPath id="clip23"><rect x="2389" y="744" width="3248" height="1949"/></clipPath><clipPath id="clip24"><rect x="2389" y="744" width="3248" height="1949"/></clipPath><clipPath id="clip25"><rect x="2389" y="744" width="3248" height="1949"/></clipPath><clipPath id="clip26"><rect x="2389" y="744" width="3248" height="1949"/></clipPath><clipPath id="clip27"><rect x="2389" y="744" width="3248" height="1949"/></clipPath><clipPath id="clip28"><rect x="2389" y="744" width="3248" height="1949"/></clipPath><clipPath id="clip29"><rect x="2389" y="744" width="3248" height="1949"/></clipPath><clipPath id="clip30"><rect x="2389" y="744" width="3248" height="1949"/></clipPath><clipPath id="clip31"><rect x="2389" y="744" width="3248" height="1949"/></clipPath><clipPath id="clip32"><rect x="2389" y="744" width="3248" height="1949"/></clipPath><clipPath id="clip33"><rect x="2389" y="744" width="3248" height="1949"/></clipPath><clipPath id="clip34"><rect x="2389" y="744" width="3248" height="1949"/></clipPath><clipPath id="clip35"><rect x="2389" y="744" width="3248" height="1949"/></clipPath><clipPath id="clip36"><rect x="2389" y="744" width="3248" height="1949"/></clipPath><clipPath id="clip37"><rect x="2389" y="744" width="3248" height="1949"/></clipPath></defs><g clip-path="url(#clip0)" transform="translate(-2388 -743)"><rect x="2389" y="744" width="3248" height="1949" fill="#FFFFFF"/><g clip-path="url(#clip1)"><path d="M2680.5 2373.5 5586.5 2373.5M2680.5 2164.57 5586.5 2164.57M2680.5 1956.56 5586.5 1956.56M2680.5 1539.55 5586.5 1539.55M2680.5 1331.54 5586.5 1331.54M2680.5 1122.54 5586.5 1122.54M2680.5 914.5 5586.5 914.5" stroke="#D9D9D9" stroke-width="3.4375" stroke-linejoin="round" stroke-miterlimit="10" fill="none"/></g><g clip-path="url(#clip2)"><path d="M2680.5 1748.5 5586.5 1748.5" stroke="#D9D9D9" stroke-width="3.4375" stroke-linejoin="round" stroke-miterlimit="10" fill="none" fill-rule="evenodd"/></g><g clip-path="url(#clip3)"><path d="M2923 2260 3407.11 2131.07 3891.13 1903.06 4376.14 1679.06 4860.16 1445.05 5344 1191" stroke="#4472C4" stroke-width="10.3125" stroke-linecap="round" stroke-linejoin="round" stroke-miterlimit="10" fill="none"/></g><g clip-path="url(#clip4)"><path d="M2923 2066 3407.11 1904.06 3891.13 1711.06 4376.14 1524.05 4860.16 1309.04 5344 1108" stroke="#ED7D31" stroke-width="10.3125" stroke-linecap="round" stroke-linejoin="round" stroke-miterlimit="10" fill="none"/></g><g clip-path="url(#clip5)"><path d="M2923 2133 3407.11 1990.07 3891.13 1760.06 4376.14 1586.05 4860.16 1375.05 5344 1167" stroke="#A5A5A5" stroke-width="10.3125" stroke-linecap="round" stroke-linejoin="round" stroke-miterlimit="10" fill="none"/></g><g clip-path="url(#clip6)"><path d="M2923 2167 3407.11 2051.07 3891.13 1821.06 4376.14 1649.05 4860.16 1435.05 5344 1229" stroke="#FFC000" stroke-width="10.3125" stroke-linecap="round" stroke-linejoin="round" stroke-miterlimit="10" fill="none"/></g><g clip-path="url(#clip7)"><path d="M2923 2109 3407.11 2079.07 3891.13 1888.06 4376.14 1708.06 4860.16 1508.05 5344 1288" stroke="#5B9BD5" stroke-width="10.3125" stroke-linecap="round" stroke-linejoin="round" stroke-miterlimit="10" fill="none"/></g><g clip-path="url(#clip8)"><path d="M2923 1733.06 3407.11 1748 3891.13 1722.06 4376.14 1665.05 4860.16 1543.05 5344 1358" stroke="#70AD47" stroke-width="10.3125" stroke-linecap="round" stroke-linejoin="round" stroke-miterlimit="10" fill="none"/></g><g clip-path="url(#clip9)"><text fill="#595959" font-family="Calibri,Calibri_MSFontService,sans-serif" font-weight="400" font-size="41" transform="matrix(1 0 0 1 2548.15 2385)">0.001</text></g><g clip-path="url(#clip10)"><text fill="#595959" font-family="Calibri,Calibri_MSFontService,sans-serif" font-weight="400" font-size="41" transform="matrix(1 0 0 1 2569.05 2177)">0.01</text></g><g clip-path="url(#clip11)"><text fill="#595959" font-family="Calibri,Calibri_MSFontService,sans-serif" font-weight="400" font-size="41" transform="matrix(1 0 0 1 2589.95 1968)">0.1</text></g><g clip-path="url(#clip12)"><text fill="#595959" font-family="Calibri,Calibri_MSFontService,sans-serif" font-weight="400" font-size="41" transform="matrix(1 0 0 1 2621.25 1760)">1</text></g><g clip-path="url(#clip13)"><text fill="#595959" font-family="Calibri,Calibri_MSFontService,sans-serif" font-weight="400" font-size="41" transform="matrix(1 0 0 1 2600.35 1551)">10</text></g><g clip-path="url(#clip14)"><text fill="#595959" font-family="Calibri,Calibri_MSFontService,sans-serif" font-weight="400" font-size="41" transform="matrix(1 0 0 1 2579.45 1343)">100</text></g><g clip-path="url(#clip15)"><text fill="#595959" font-family="Calibri,Calibri_MSFontService,sans-serif" font-weight="400" font-size="41" transform="matrix(1 0 0 1 2558.55 1134)">1000</text></g><g clip-path="url(#clip16)"><text fill="#595959" font-family="Calibri,Calibri_MSFontService,sans-serif" font-weight="400" font-size="41" transform="matrix(1 0 0 1 2537.65 926)">10000</text></g><g clip-path="url(#clip17)"><text fill="#595959" font-family="Calibri,Calibri_MSFontService,sans-serif" font-weight="400" font-size="41" transform="matrix(1 0 0 1 2901.71 2439)">10</text></g><g clip-path="url(#clip18)"><text fill="#595959" font-family="Calibri,Calibri_MSFontService,sans-serif" font-weight="400" font-size="41" transform="matrix(1 0 0 1 3375.64 2439)">100</text></g><g clip-path="url(#clip19)"><text fill="#595959" font-family="Calibri,Calibri_MSFontService,sans-serif" font-weight="400" font-size="41" transform="matrix(1 0 0 1 3849.56 2439)">1000</text></g><g clip-path="url(#clip20)"><text fill="#595959" font-family="Calibri,Calibri_MSFontService,sans-serif" font-weight="400" font-size="41" transform="matrix(1 0 0 1 4323.49 2439)">10000</text></g><g clip-path="url(#clip21)"><text fill="#595959" font-family="Calibri,Calibri_MSFontService,sans-serif" font-weight="400" font-size="41" transform="matrix(1 0 0 1 4797.41 2439)">100000</text></g><g clip-path="url(#clip22)"><text fill="#595959" font-family="Calibri,Calibri_MSFontService,sans-serif" font-weight="400" font-size="41" transform="matrix(1 0 0 1 5271.34 2439)">1000000</text></g><g clip-path="url(#clip23)"><text fill="#595959" font-family="Calibri,Calibri_MSFontService,sans-serif" font-weight="400" font-size="55" transform="matrix(6.12323e-17 -1 1 6.12323e-17 2498.35 1716)">Temps</text></g><g clip-path="url(#clip24)"><text fill="#595959" font-family="Calibri,Calibri_MSFontService,sans-serif" font-weight="400" font-size="55" transform="matrix(1 0 0 1 3930.77 2516)">Taille des vecteurs</text></g><g clip-path="url(#clip25)"><text fill="#595959" font-family="Calibri,Calibri_MSFontService,sans-serif" font-weight="400" font-size="64" transform="matrix(1 0 0 1 3893.25 840)">Croissant</text></g><g clip-path="url(#clip26)"><path d="M2630 2627 2718 2627" stroke="#4472C4" stroke-width="10.3125" stroke-linecap="round" stroke-linejoin="round" stroke-miterlimit="10" fill="none" fill-rule="evenodd"/></g><g clip-path="url(#clip27)"><text fill="#595959" font-family="Calibri,Calibri_MSFontService,sans-serif" font-weight="400" font-size="41" transform="matrix(1 0 0 1 2726.82 2638)">Tri rapide [ms]</text></g><g clip-path="url(#clip28)"><path d="M3048 2627 3136 2627" stroke="#ED7D31" stroke-width="10.3125" stroke-linecap="round" stroke-linejoin="round" stroke-miterlimit="10" fill="none" fill-rule="evenodd"/></g><g clip-path="url(#clip29)"><text fill="#595959" font-family="Calibri,Calibri_MSFontService,sans-serif" font-weight="400" font-size="41" transform="matrix(1 0 0 1 3144.95 2638)">Tri par base 1 [ms]</text></g><g clip-path="url(#clip30)"><path d="M3532 2627 3620 2627" stroke="#A5A5A5" stroke-width="10.3125" stroke-linecap="round" stroke-linejoin="round" stroke-miterlimit="10" fill="none" fill-rule="evenodd"/></g><g clip-path="url(#clip31)"><text fill="#595959" font-family="Calibri,Calibri_MSFontService,sans-serif" font-weight="400" font-size="41" transform="matrix(1 0 0 1 3629.06 2638)">Tri par base 2 [ms]</text></g><g clip-path="url(#clip32)"><path d="M4016 2627 4104 2627" stroke="#FFC000" stroke-width="10.3125" stroke-linecap="round" stroke-linejoin="round" stroke-miterlimit="10" fill="none" fill-rule="evenodd"/></g><g clip-path="url(#clip33)"><text fill="#595959" font-family="Calibri,Calibri_MSFontService,sans-serif" font-weight="400" font-size="41" transform="matrix(1 0 0 1 4113.18 2638)">Tri par base 4 [ms]</text></g><g clip-path="url(#clip34)"><path d="M4500 2627 4588 2627" stroke="#5B9BD5" stroke-width="10.3125" stroke-linecap="round" stroke-linejoin="round" stroke-miterlimit="10" fill="none" fill-rule="evenodd"/></g><g clip-path="url(#clip35)"><text fill="#595959" font-family="Calibri,Calibri_MSFontService,sans-serif" font-weight="400" font-size="41" transform="matrix(1 0 0 1 4597.29 2638)">Tri par base 8 [ms]</text></g><g clip-path="url(#clip36)"><path d="M4984 2627 5072 2627" stroke="#70AD47" stroke-width="10.3125" stroke-linecap="round" stroke-linejoin="round" stroke-miterlimit="10" fill="none" fill-rule="evenodd"/></g><g clip-path="url(#clip37)"><text fill="#595959" font-family="Calibri,Calibri_MSFontService,sans-serif" font-weight="400" font-size="41" transform="matrix(1 0 0 1 5081.4 2638)">Tri par base 16 [ms]</text></g><rect x="2389.5" y="744.5" width="3248" height="1949" stroke="#D9D9D9" stroke-width="3.4375" stroke-linejoin="round" stroke-miterlimit="10" fill="none"/></g></svg>