<svg width="3251" height="1951" xmlns="http://www.w3.org/2000/svg" xmlns:xlink="http://www.w3.org/1999/xlink" xml:space="preserve" overflow="hidden"><defs><clipPath id="clip0"><rect x="2309" y="369" width="3251" height="1951"/></clipPath><clipPath id="clip1"><rect x="2310" y="369" width="3248" height="1949"/></clipPath><clipPath id="clip2"><rect x="2310" y="369" width="3248" height="1949"/></clipPath><clipPath id="clip3"><rect x="2601" y="539" width="2910" height="1463"/></clipPath><clipPath id="clip4"><rect x="2601" y="539" width="2910" height="1463"/></clipPath><clipPath id="clip5"><rect x="2601" y="539" width="2910" height="1463"/></clipPath><clipPath id="clip6"><rect x="2601" y="539" width="2910" height="1463"/></clipPath><clipPath id="clip7"><rect x="2601" y="539" width="2910" height="1463"/></clipPath><clipPath id="clip8"><rect x="2601" y="539" width="2910" height="1463"/></clipPath><clipPath id="clip9"><rect x="2310" y="369" width="3248" height="1949"/></clipPath><clipPath id="clip10"><rect x="2310" y="369" width="3248" height="1949"/></clipPath><clipPath id="clip11"><rect x="2310" y="369" width="3248" height="1949"/></clipPath><clipPath id="clip12"><rect x="2310" y="369" width="3248" height="1949"/></clipPath><clipPath id="clip13"><rect x="2310" y="369" width="3248" height="1949"/></clipPath><clipPath id="clip14"><rect x="2310" y="369" width="3248" height="1949"/></clipPath><clipPath id="clip15"><rect x="2310" y="369" width="3248" height="1949"/></clipPath><clipPath id="clip16"><rect x="2310" y="369" width="3248" height="1949"/></clipPath><clipPath id="clip17"><rect x="2310" y="369" width="3248" height="1949"/></clipPath><clipPath id="clip18"><rect x="2310" y="369" width="3248" height="1949"/></clipPath><clipPath id="clip19"><rect x="2310" y="369" width="3248" height="1949"/></clipPath><clipPath id="clip20"><rect x="2310" y="369" width="3248" height="1949"/></clipPath><clipPath id="clip21"><rect x="2310" y="369" width="3248" height="1949"/></clipPath><clipPath id="clip22"><rect x="2310" y="369" width="3248" height="1949"/></clipPath><clipPath id="clip23"><rect x="2310" y="369" width="3248" height="1949"/></clipPath><clipPath id="clip24"><rect x="2310" y="369" width="3248" height="1949"/></clipPath><clipPath id="clip25"><rect x="2310" y="369" width="3248" height="1949"/></clipPath><clipPath id="clip26"><rect x="2310" y="369" width="3248" height="1949"/></clipPath><clipPath id="clip27"><rect x="2310" y="369" width="3248" height="1949"/></clipPath><clipPath id="clip28"><rect x="2310" y="369" width="3248" height="1949"/></clipPath><clipPath id="clip29"><rect x="2310" y="369" width="3248" height="1949"/></clipPath><clipPath id="clip30"><rect x="2310" y="369" width="3248" height="1949"/></clipPath><clipPath id="clip31"><rect x="2310" y="369" width="3248" height="1949"/></clipPath><clipPath id="clip32"><rect x="2310" y="369" width="3248" height="1949"/></clipPath><clipPath id="clip33"><rect x="2310" y="369" width="3248" height="1949"/></clipPath><clipPath id="clip34"><rect x="2310" y="369" width="3248" height="1949"/></clipPath><clipPath id="clip35"><rect x="2310" y="369" width="3248" height="1949"/></clipPath><clipPath id="clip36"><rect x="2310" y="369" width="3248" height="1949"/></clipPath><clipPath id="clip37"><rect x="2310" y="369" width="3248" height="1949"/></clipPath></defs><g clip-path="url(#clip0)" transform="translate(-2309 -369)"><rect x="2310" y="370" width="3248" height="1948" fill="#FFFFFF"/><g clip-path="url(#clip1)"><path d="M2601.5 1998.5 5507.5 1998.5M2601.5 1790.56 5507.5 1790.56M2601.5 1581.55 5507.5 1581.55M2601.5 1164.54 5507.5 1164.54M2601.5 956.532 5507.5 956.532M2601.5 747.525 5507.5 747.525M2601.5 539.5 5507.5 539.5" stroke="#D9D9D9" stroke-width="3.4375" stroke-linejoin="round" stroke-miterlimit="10" fill="none"/></g><g clip-path="url(#clip2)"><path d="M2601.5 1373.5 5507.5 1373.5" stroke="#D9D9D9" stroke-width="3.4375" stroke-linejoin="round" stroke-miterlimit="10" fill="none" fill-rule="evenodd"/></g><g clip-path="url(#clip3)"><path d="M2844 1923 3328.11 1749.06 3812.12 1526.05 4297.14 1296.04 4781.16 1064.03 5265 794" stroke="#4472C4" stroke-width="10.3125" stroke-linecap="round" stroke-linejoin="round" stroke-miterlimit="10" fill="none"/></g><g clip-path="url(#clip4)"><path d="M2844 1730 3328.11 1569.05 3812.12 1361.04 4297.14 1142.04 4781.16 940.031 5265 728" stroke="#ED7D31" stroke-width="10.3125" stroke-linecap="round" stroke-linejoin="round" stroke-miterlimit="10" fill="none"/></g><g clip-path="url(#clip5)"><path d="M2844 1792 3328.11 1630.05 3812.12 1422.05 4297.14 1201.04 4781.16 1007.03 5265 793" stroke="#A5A5A5" stroke-width="10.3125" stroke-linecap="round" stroke-linejoin="round" stroke-miterlimit="10" fill="none"/></g><g clip-path="url(#clip6)"><path d="M2844 1820 3328.11 1687.06 3812.12 1485.05 4297.14 1267.04 4781.16 1065.03 5265 850" stroke="#FFC000" stroke-width="10.3125" stroke-linecap="round" stroke-linejoin="round" stroke-miterlimit="10" fill="none"/></g><g clip-path="url(#clip7)"><path d="M2844 1640.05 3328.11 1717 3812.12 1542.05 4297.14 1327.04 4781.16 1125.04 5265 897" stroke="#5B9BD5" stroke-width="10.3125" stroke-linecap="round" stroke-linejoin="round" stroke-miterlimit="10" fill="none"/></g><g clip-path="url(#clip8)"><path d="M2844 1371.04 3328.11 1389 3812.12 1368.04 4297.14 1296.04 4781.16 1174.04 5265 961" stroke="#70AD47" stroke-width="10.3125" stroke-linecap="round" stroke-linejoin="round" stroke-miterlimit="10" fill="none"/></g><g clip-path="url(#clip9)"><text fill="#595959" font-family="Calibri,Calibri_MSFontService,sans-serif" font-weight="400" font-size="41" transform="matrix(1 0 0 1 2469.09 2010)">0.001</text></g><g clip-path="url(#clip10)"><text fill="#595959" font-family="Calibri,Calibri_MSFontService,sans-serif" font-weight="400" font-size="41" transform="matrix(1 0 0 1 2489.99 1802)">0.01</text></g><g clip-path="url(#clip11)"><text fill="#595959" font-family="Calibri,Calibri_MSFontService,sans-serif" font-weight="400" font-size="41" transform="matrix(1 0 0 1 2510.89 1593)">0.1</text></g><g clip-path="url(#clip12)"><text fill="#595959" font-family="Calibri,Calibri_MSFontService,sans-serif" font-weight="400" font-size="41" transform="matrix(1 0 0 1 2542.19 1385)">1</text></g><g clip-path="url(#clip13)"><text fill="#595959" font-family="Calibri,Calibri_MSFontService,sans-serif" font-weight="400" font-size="41" transform="matrix(1 0 0 1 2521.29 1176)">10</text></g><g clip-path="url(#clip14)"><text fill="#595959" font-family="Calibri,Calibri_MSFontService,sans-serif" font-weight="400" font-size="41" transform="matrix(1 0 0 1 2500.39 968)">100</text></g><g clip-path="url(#clip15)"><text fill="#595959" font-family="Calibri,Calibri_MSFontService,sans-serif" font-weight="400" font-size="41" transform="matrix(1 0 0 1 2479.49 760)">1000</text></g><g clip-path="url(#clip16)"><text fill="#595959" font-family="Calibri,Calibri_MSFontService,sans-serif" font-weight="400" font-size="41" transform="matrix(1 0 0 1 2458.59 551)">10000</text></g><g clip-path="url(#clip17)"><text fill="#595959" font-family="Calibri,Calibri_MSFontService,sans-serif" font-weight="400" font-size="41" transform="matrix(1 0 0 1 2822.65 2064)">10</text></g><g clip-path="url(#clip18)"><text fill="#595959" font-family="Calibri,Calibri_MSFontService,sans-serif" font-weight="400" font-size="41" transform="matrix(1 0 0 1 3296.57 2064)">100</text></g><g clip-path="url(#clip19)"><text fill="#595959" font-family="Calibri,Calibri_MSFontService,sans-serif" font-weight="400" font-size="41" transform="matrix(1 0 0 1 3770.5 2064)">1000</text></g><g clip-path="url(#clip20)"><text fill="#595959" font-family="Calibri,Calibri_MSFontService,sans-serif" font-weight="400" font-size="41" transform="matrix(1 0 0 1 4244.42 2064)">10000</text></g><g clip-path="url(#clip21)"><text fill="#595959" font-family="Calibri,Calibri_MSFontService,sans-serif" font-weight="400" font-size="41" transform="matrix(1 0 0 1 4718.35 2064)">100000</text></g><g clip-path="url(#clip22)"><text fill="#595959" font-family="Calibri,Calibri_MSFontService,sans-serif" font-weight="400" font-size="41" transform="matrix(1 0 0 1 5192.28 2064)">1000000</text></g><g clip-path="url(#clip23)"><text fill="#595959" font-family="Calibri,Calibri_MSFontService,sans-serif" font-weight="400" font-size="55" transform="matrix(6.12323e-17 -1 1 6.12323e-17 2419.29 1341)">Temps</text></g><g clip-path="url(#clip24)"><text fill="#595959" font-family="Calibri,Calibri_MSFontService,sans-serif" font-weight="400" font-size="55" transform="matrix(1 0 0 1 3851.71 2141)">Taille des vecteurs</text></g><g clip-path="url(#clip25)"><text fill="#595959" font-family="Calibri,Calibri_MSFontService,sans-serif" font-weight="400" font-size="64" transform="matrix(1 0 0 1 3782.02 465)">Décroissant</text></g><g clip-path="url(#clip26)"><path d="M2550 2252 2638 2252" stroke="#4472C4" stroke-width="10.3125" stroke-linecap="round" stroke-linejoin="round" stroke-miterlimit="10" fill="none" fill-rule="evenodd"/></g><g clip-path="url(#clip27)"><text fill="#595959" font-family="Calibri,Calibri_MSFontService,sans-serif" font-weight="400" font-size="41" transform="matrix(1 0 0 1 2647.76 2264)">Tri rapide [ms]</text></g><g clip-path="url(#clip28)"><path d="M2969 2252 3057 2252" stroke="#ED7D31" stroke-width="10.3125" stroke-linecap="round" stroke-linejoin="round" stroke-miterlimit="10" fill="none" fill-rule="evenodd"/></g><g clip-path="url(#clip29)"><text fill="#595959" font-family="Calibri,Calibri_MSFontService,sans-serif" font-weight="400" font-size="41" transform="matrix(1 0 0 1 3065.89 2264)">Tri par base 1 [ms]</text></g><g clip-path="url(#clip30)"><path d="M3453 2252 3541 2252" stroke="#A5A5A5" stroke-width="10.3125" stroke-linecap="round" stroke-linejoin="round" stroke-miterlimit="10" fill="none" fill-rule="evenodd"/></g><g clip-path="url(#clip31)"><text fill="#595959" font-family="Calibri,Calibri_MSFontService,sans-serif" font-weight="400" font-size="41" transform="matrix(1 0 0 1 3550 2264)">Tri par base 2 [ms]</text></g><g clip-path="url(#clip32)"><path d="M3937 2252 4025 2252" stroke="#FFC000" stroke-width="10.3125" stroke-linecap="round" stroke-linejoin="round" stroke-miterlimit="10" fill="none" fill-rule="evenodd"/></g><g clip-path="url(#clip33)"><text fill="#595959" font-family="Calibri,Calibri_MSFontService,sans-serif" font-weight="400" font-size="41" transform="matrix(1 0 0 1 4034.11 2264)">Tri par base 4 [ms]</text></g><g clip-path="url(#clip34)"><path d="M4421 2252 4509 2252" stroke="#5B9BD5" stroke-width="10.3125" stroke-linecap="round" stroke-linejoin="round" stroke-miterlimit="10" fill="none" fill-rule="evenodd"/></g><g clip-path="url(#clip35)"><text fill="#595959" font-family="Calibri,Calibri_MSFontService,sans-serif" font-weight="400" font-size="41" transform="matrix(1 0 0 1 4518.22 2264)">Tri par base 8 [ms]</text></g><g clip-path="url(#clip36)"><path d="M4905 2252 4993 2252" stroke="#70AD47" stroke-width="10.3125" stroke-linecap="round" stroke-linejoin="round" stroke-miterlimit="10" fill="none" fill-rule="evenodd"/></g><g clip-path="url(#clip37)"><text fill="#595959" font-family="Calibri,Calibri_MSFontService,sans-serif" font-weight="400" font-size="41" transform="matrix(1 0 0 1 5002.34 2264)">Tri par base 16 [ms]</text></g><rect x="2310.5" y="370.5" width="3248" height="1948" stroke="#D9D9D9" stroke-width="3.4375" stroke-linejoin="round" stroke-miterlimit="10" fill="none"/></g></svg>