<svg width="3251" height="1952" xmlns="http://www.w3.org/2000/svg" xmlns:xlink="http://www.w3.org/1999/xlink" xml:space="preserve" overflow="hidden"><defs><clipPath id="clip0"><rect x="1922" y="434" width="3251" height="1952"/></clipPath><clipPath id="clip1"><rect x="1923" y="434" width="3248" height="1949"/></clipPath><clipPath id="clip2"><rect x="1923" y="434" width="3248" height="1949"/></clipPath><clipPath id="clip3"><rect x="2214" y="604" width="2910" height="1463"/></clipPath><clipPath id="clip4"><rect x="2214" y="604" width="2910" height="1463"/></clipPath><clipPath id="clip5"><rect x="2214" y="604" width="2910" height="1463"/></clipPath><clipPath id="clip6"><rect x="2214" y="604" width="2910" height="1463"/></clipPath><clipPath id="clip7"><rect x="2214" y="604" width="2910" height="1463"/></clipPath><clipPath id="clip8"><rect x="2214" y="604" width="2910" height="1463"/></clipPath><clipPath id="clip9"><rect x="1923" y="434" width="3248" height="1949"/></clipPath><clipPath id="clip10"><rect x="1923" y="434" width="3248" height="1949"/></clipPath><clipPath id="clip11"><rect x="1923" y="434" width="3248" height="1949"/></clipPath><clipPath id="clip12"><rect x="1923" y="434" width="3248" height="1949"/></clipPath><clipPath id="clip13"><rect x="1923" y="434" width="3248" height="1949"/></clipPath><clipPath id="clip14"><rect x="1923" y="434" width="3248" height="1949"/></clipPath><clipPath id="clip15"><rect x="1923" y="434" width="3248" height="1949"/></clipPath><clipPath id="clip16"><rect x="1923" y="434" width="3248" height="1949"/></clipPath><clipPath id="clip17"><rect x="1923" y="434" width="3248" height="1949"/></clipPath><clipPath id="clip18"><rect x="1923" y="434" width="3248" height="1949"/></clipPath><clipPath id="clip19"><rect x="1923" y="434" width="3248" height="1949"/></clipPath><clipPath id="clip20"><rect x="1923" y="434" width="3248" height="1949"/></clipPath><clipPath id="clip21"><rect x="1923" y="434" width="3248" height="1949"/></clipPath><clipPath id="clip22"><rect x="1923" y="434" width="3248" height="1949"/></clipPath><clipPath id="clip23"><rect x="1923" y="434" width="3248" height="1949"/></clipPath><clipPath id="clip24"><rect x="1923" y="434" width="3248" height="1949"/></clipPath><clipPath id="clip25"><rect x="1923" y="434" width="3248" height="1949"/></clipPath><clipPath id="clip26"><rect x="1923" y="434" width="3248" height="1949"/></clipPath><clipPath id="clip27"><rect x="1923" y="434" width="3248" height="1949"/></clipPath><clipPath id="clip28"><rect x="1923" y="434" width="3248" height="1949"/></clipPath><clipPath id="clip29"><rect x="1923" y="434" width="3248" height="1949"/></clipPath><clipPath id="clip30"><rect x="1923" y="434" width="3248" height="1949"/></clipPath><clipPath id="clip31"><rect x="1923" y="434" width="3248" height="1949"/></clipPath><clipPath id="clip32"><rect x="1923" y="434" width="3248" height="1949"/></clipPath><clipPath id="clip33"><rect x="1923" y="434" width="3248" height="1949"/></clipPath><clipPath id="clip34"><rect x="1923" y="434" width="3248" height="1949"/></clipPath><clipPath id="clip35"><rect x="1923" y="434" width="3248" height="1949"/></clipPath><clipPath id="clip36"><rect x="1923" y="434" width="3248" height="1949"/></clipPath><clipPath id="clip37"><rect x="1923" y="434" width="3248" height="1949"/></clipPath></defs><g clip-path="url(#clip0)" transform="translate(-1922 -434)"><rect x="1923" y="435" width="3248" height="1949" fill="#FFFFFF"/><g clip-path="url(#clip1)"><path d="M2214.5 2064.5 5120.5 2064.5M2214.5 1855.56 5120.5 1855.56M2214.5 1647.55 5120.5 1647.55M2214.5 1230.54 5120.5 1230.54M2214.5 1021.53 5120.5 1021.53M2214.5 813.527 5120.5 813.527M2214.5 604.5 5120.5 604.5" stroke="#D9D9D9" stroke-width="3.4375" stroke-linejoin="round" stroke-miterlimit="10" fill="none"/></g><g clip-path="url(#clip2)"><path d="M2214.5 1438.5 5120.5 1438.5" stroke="#D9D9D9" stroke-width="3.4375" stroke-linejoin="round" stroke-miterlimit="10" fill="none" fill-rule="evenodd"/></g><g clip-path="url(#clip3)"><path d="M2457 2006 2941.1 1771.06 3425.11 1570.05 3910.13 1347.04 4394.14 1127.04 4879 878" stroke="#4472C4" stroke-width="10.3125" stroke-linecap="round" stroke-linejoin="round" stroke-miterlimit="10" fill="none"/></g><g clip-path="url(#clip4)"><path d="M2457 1796 2941.1 1607.05 3425.11 1398.05 3910.13 1214.04 4394.14 1010.03 4879 792" stroke="#ED7D31" stroke-width="10.3125" stroke-linecap="round" stroke-linejoin="round" stroke-miterlimit="10" fill="none"/></g><g clip-path="url(#clip5)"><path d="M2457 1856 2941.1 1685.06 3425.11 1481.05 3910.13 1273.04 4394.14 1068.04 4879 855" stroke="#A5A5A5" stroke-width="10.3125" stroke-linecap="round" stroke-linejoin="round" stroke-miterlimit="10" fill="none"/></g><g clip-path="url(#clip6)"><path d="M2457 1889 2941.1 1744.06 3425.11 1543.05 3910.13 1340.04 4394.14 1130.04 4879 916" stroke="#FFC000" stroke-width="10.3125" stroke-linecap="round" stroke-linejoin="round" stroke-miterlimit="10" fill="none"/></g><g clip-path="url(#clip7)"><path d="M2457 1708.06 2941.1 1776 3425.11 1591.05 3910.13 1399.05 4394.14 1192.04 4879 976" stroke="#5B9BD5" stroke-width="10.3125" stroke-linecap="round" stroke-linejoin="round" stroke-miterlimit="10" fill="none"/></g><g clip-path="url(#clip8)"><path d="M2457 1434 2941.1 1425.05 3425.11 1427.05 3910.13 1382.05 4394.14 1241.04 4879 1029" stroke="#70AD47" stroke-width="10.3125" stroke-linecap="round" stroke-linejoin="round" stroke-miterlimit="10" fill="none"/></g><g clip-path="url(#clip9)"><text fill="#595959" font-family="Calibri,Calibri_MSFontService,sans-serif" font-weight="400" font-size="41" transform="matrix(1 0 0 1 2082.37 2076)">0.001</text></g><g clip-path="url(#clip10)"><text fill="#595959" font-family="Calibri,Calibri_MSFontService,sans-serif" font-weight="400" font-size="41" transform="matrix(1 0 0 1 2103.27 1867)">0.01</text></g><g clip-path="url(#clip11)"><text fill="#595959" font-family="Calibri,Calibri_MSFontService,sans-serif" font-weight="400" font-size="41" transform="matrix(1 0 0 1 2124.17 1659)">0.1</text></g><g clip-path="url(#clip12)"><text fill="#595959" font-family="Calibri,Calibri_MSFontService,sans-serif" font-weight="400" font-size="41" transform="matrix(1 0 0 1 2155.47 1450)">1</text></g><g clip-path="url(#clip13)"><text fill="#595959" font-family="Calibri,Calibri_MSFontService,sans-serif" font-weight="400" font-size="41" transform="matrix(1 0 0 1 2134.57 1242)">10</text></g><g clip-path="url(#clip14)"><text fill="#595959" font-family="Calibri,Calibri_MSFontService,sans-serif" font-weight="400" font-size="41" transform="matrix(1 0 0 1 2113.67 1033)">100</text></g><g clip-path="url(#clip15)"><text fill="#595959" font-family="Calibri,Calibri_MSFontService,sans-serif" font-weight="400" font-size="41" transform="matrix(1 0 0 1 2092.77 825)">1000</text></g><g clip-path="url(#clip16)"><text fill="#595959" font-family="Calibri,Calibri_MSFontService,sans-serif" font-weight="400" font-size="41" transform="matrix(1 0 0 1 2071.87 616)">10000</text></g><g clip-path="url(#clip17)"><text fill="#595959" font-family="Calibri,Calibri_MSFontService,sans-serif" font-weight="400" font-size="41" transform="matrix(1 0 0 1 2435.93 2129)">10</text></g><g clip-path="url(#clip18)"><text fill="#595959" font-family="Calibri,Calibri_MSFontService,sans-serif" font-weight="400" font-size="41" transform="matrix(1 0 0 1 2909.85 2129)">100</text></g><g clip-path="url(#clip19)"><text fill="#595959" font-family="Calibri,Calibri_MSFontService,sans-serif" font-weight="400" font-size="41" transform="matrix(1 0 0 1 3383.78 2129)">1000</text></g><g clip-path="url(#clip20)"><text fill="#595959" font-family="Calibri,Calibri_MSFontService,sans-serif" font-weight="400" font-size="41" transform="matrix(1 0 0 1 3857.71 2129)">10000</text></g><g clip-path="url(#clip21)"><text fill="#595959" font-family="Calibri,Calibri_MSFontService,sans-serif" font-weight="400" font-size="41" transform="matrix(1 0 0 1 4331.63 2129)">100000</text></g><g clip-path="url(#clip22)"><text fill="#595959" font-family="Calibri,Calibri_MSFontService,sans-serif" font-weight="400" font-size="41" transform="matrix(1 0 0 1 4805.56 2129)">1000000</text></g><g clip-path="url(#clip23)"><text fill="#595959" font-family="Calibri,Calibri_MSFontService,sans-serif" font-weight="400" font-size="55" transform="matrix(6.12323e-17 -1 1 6.12323e-17 2032.57 1406)">Temps</text></g><g clip-path="url(#clip24)"><text fill="#595959" font-family="Calibri,Calibri_MSFontService,sans-serif" font-weight="400" font-size="55" transform="matrix(1 0 0 1 3464.99 2206)">Taille des vecteurs</text></g><g clip-path="url(#clip25)"><text fill="#595959" font-family="Calibri,Calibri_MSFontService,sans-serif" font-weight="400" font-size="64" transform="matrix(1 0 0 1 3389.27 530)">Presque trié</text></g><g clip-path="url(#clip26)"><path d="M2164 2317 2252 2317" stroke="#4472C4" stroke-width="10.3125" stroke-linecap="round" stroke-linejoin="round" stroke-miterlimit="10" fill="none" fill-rule="evenodd"/></g><g clip-path="url(#clip27)"><text fill="#595959" font-family="Calibri,Calibri_MSFontService,sans-serif" font-weight="400" font-size="41" transform="matrix(1 0 0 1 2261.04 2329)">Tri rapide [ms]</text></g><g clip-path="url(#clip28)"><path d="M2582 2317 2670 2317" stroke="#ED7D31" stroke-width="10.3125" stroke-linecap="round" stroke-linejoin="round" stroke-miterlimit="10" fill="none" fill-rule="evenodd"/></g><g clip-path="url(#clip29)"><text fill="#595959" font-family="Calibri,Calibri_MSFontService,sans-serif" font-weight="400" font-size="41" transform="matrix(1 0 0 1 2679.17 2329)">Tri par base 1 [ms]</text></g><g clip-path="url(#clip30)"><path d="M3066 2317 3154 2317" stroke="#A5A5A5" stroke-width="10.3125" stroke-linecap="round" stroke-linejoin="round" stroke-miterlimit="10" fill="none" fill-rule="evenodd"/></g><g clip-path="url(#clip31)"><text fill="#595959" font-family="Calibri,Calibri_MSFontService,sans-serif" font-weight="400" font-size="41" transform="matrix(1 0 0 1 3163.28 2329)">Tri par base 2 [ms]</text></g><g clip-path="url(#clip32)"><path d="M3550 2317 3638 2317" stroke="#FFC000" stroke-width="10.3125" stroke-linecap="round" stroke-linejoin="round" stroke-miterlimit="10" fill="none" fill-rule="evenodd"/></g><g clip-path="url(#clip33)"><text fill="#595959" font-family="Calibri,Calibri_MSFontService,sans-serif" font-weight="400" font-size="41" transform="matrix(1 0 0 1 3647.39 2329)">Tri par base 4 [ms]</text></g><g clip-path="url(#clip34)"><path d="M4034 2317 4122 2317" stroke="#5B9BD5" stroke-width="10.3125" stroke-linecap="round" stroke-linejoin="round" stroke-miterlimit="10" fill="none" fill-rule="evenodd"/></g><g clip-path="url(#clip35)"><text fill="#595959" font-family="Calibri,Calibri_MSFontService,sans-serif" font-weight="400" font-size="41" transform="matrix(1 0 0 1 4131.51 2329)">Tri par base 8 [ms]</text></g><g clip-path="url(#clip36)"><path d="M4518 2317 4606 2317" stroke="#70AD47" stroke-width="10.3125" stroke-linecap="round" stroke-linejoin="round" stroke-miterlimit="10" fill="none" fill-rule="evenodd"/></g><g clip-path="url(#clip37)"><text fill="#595959" font-family="Calibri,Calibri_MSFontService,sans-serif" font-weight="400" font-size="41" transform="matrix(1 0 0 1 4615.62 2329)">Tri par base 16 [ms]</text></g><rect x="1923.5" y="435.5" width="3248" height="1949" stroke="#D9D9D9" stroke-width="3.4375" stroke-linejoin="round" stroke-miterlimit="10" fill="none"/></g></svg>